<?xml version="1.0" encoding="utf-8" ?>
<svg baseProfile="full" height="200mm" version="1.1" viewBox="0,0,200,200" width="200mm" xmlns="http://www.w3.org/2000/svg" xmlns:ev="http://www.w3.org/2001/xml-events" xmlns:xlink="http://www.w3.org/1999/xlink"><defs /><rect fill="#1a1a1a" height="200" width="200" x="0" y="0" /><text alignment-baseline="middle" fill="#e1ed5e" style="dominant-baseline: central; font-size:9.0px; font-family:Arial;" text-anchor="middle" x="100.0" y="100.0">2026</text><line stroke="#e1ed5e" stroke-width="0.3" x1="100.0" x2="100.0" y1="15.0" y2="10.0" /><path d="M 100.0 14.0 a86.0,86.0 0 0,1 42.46469731375804,11.215312516191453" fill="none" id="id25" stroke="none" /><text fill="#e1ed5e" style="font-size:6.75px; font-family:Arial;" text-anchor="middle"><textPath startOffset="22.20632615414155" xlink:href="#id25">January</textPath></text><path d="M 102.88285421437855 79.19881850522331 l 2.6023466454255098 -18.777184296670434 a39.95665735761672,39.95665735761672 0 0,0 0.680463814736539,0.10028267796364783 l -2.925179440590705 18.729607134545816" fill="red" stroke="none" /><path d="M 103.59715602781102 79.31037775812273 l 5.367978712328512 -30.87479411564466 a52.337965906220816,52.337965906220816 0 0,0 0.8862683822762931,0.16195988197605798 l -5.898642215707706 30.777818752317863" fill="red" stroke="none" /><path d="M 104.307194497241 79.44645832069477 l 4.876517288121631 -23.270298426380116 a44.77576938217012,44.77576938217012 0 0,0 0.7529947018541462,0.16457547660360644 l -5.2763547141293055 23.18290945168064" fill="red" stroke="none" /><path d="M 105.01212808612495 79.60689891045804 l 5.82948243655851 -23.718712408317206 a45.424581547830144,45.424581547830144 0 0,0 0.7577060548289107,0.19315614440496015 l -6.236897380072445 23.614853267743378" fill="red" stroke="none" /><path d="M 105.71112130821622 79.79150937346287 l 7.453105228444154 -26.37240552585131 a48.40533799766415,48.40533799766415 0 0,0 0.7998631333139693,0.23350198230563607 l -7.905958579481551 26.24020521462697" fill="red" stroke="none" /><path d="M 108.09893153111575 80.62456947434976 l 17.446627170463405 -41.73833441479484 a66.2379636958429,66.2379636958429 0 0,0 1.0481881517630491,0.44877946387752626 l -18.16249908001677 41.43183542295453" fill="red" stroke="none" /><path d="M 108.76106565485865 80.91482961587045 l 9.606251301308138 -20.926329063241113 a44.02588352543576,44.02588352543576 0 0,0 0.6860108741099358,0.3220913037961682 l -9.965040386717671 20.75787277680494" fill="red" stroke="none" /><path d="M 110.05341064243156 81.56283822128135 l 21.29632092052545 -39.05577202288356 a65.48467840789078,65.48467840789078 0 0,0 0.9850015449484446,0.5481522933252644 l -21.96544655454593 38.68340433199812" fill="red" stroke="none" /><line stroke="#e1ed5e" stroke-width="0.3" x1="143.23703022742887" x2="145.7803849466894" y1="26.81831364943548" y2="22.513508569990506" /><path d="M 143.74570117128098 25.957352633546492 a86.0,86.0 0 0,1 28.547481713284135,27.462654790039103" fill="none" id="id26" stroke="none" /><text fill="#e1ed5e" style="font-size:6.75px; font-family:Arial;" text-anchor="middle"><textPath startOffset="19.985693538727396" xlink:href="#id26">February</textPath></text><path d="M 110.99172775467656 82.1063720568725 l 12.40327291791391 -20.191507270164525 a44.69679608971144,44.69679608971144 0 0,0 0.6521067748671382,0.4083492025974114 l -12.748998845153311 19.975013726244168" fill="red" stroke="none" /><path d="M 111.60114157652 82.49532879139004 l 18.049556280185996 -27.234522228866105 a53.6727054733183,53.6727054733183 0 0,0 0.7657185999193558,0.5170166167597268 l -18.515679574511893 26.91979369980771" fill="red" stroke="none" /><path d="M 113.34407831869373 83.78471172551755 l 15.06775676961287 -18.309846048098944 a44.712607540574254,44.712607540574254 0 0,0 0.5900839134654805,0.49417830762246046 l -15.380698220037468 18.047766583082662" fill="red" stroke="none" /><path d="M 115.9244219780498 86.31012108654704 l 9.557217019197987 -8.216131418946192 a33.60338100056657,33.60338100056657 0 0,0 0.3733005780181351,0.44187013930998936 l -9.697228210703239 8.050402330007095" fill="red" stroke="none" /><path d="M 116.60985879189232 87.15038557335679 l 34.246221247957294 -26.493346157799174 a64.2978181944658,64.2978181944658 0 0,0 0.66968951572502,0.8812329025714635 l -34.697186703906425 25.899928479346677" fill="red" stroke="none" /><line stroke="#e1ed5e" stroke-width="0.3" x1="172.23445277983987" x2="176.4835382374775" y1="55.19839476539836" y2="52.563006222186495" /><path d="M 173.08426987136738 54.67131705675599 a86.0,86.0 0 0,1 12.851231095245387,41.99856678651699" fill="none" id="id27" stroke="none" /><text fill="#e1ed5e" style="font-size:6.75px; font-family:Arial;" text-anchor="middle"><textPath startOffset="22.20632615414155" xlink:href="#id27">March</textPath></text><path d="M 119.196687751892 91.48605970444005 l 19.183436508274905 -8.508063224553942 a41.985503951538114,41.985503951538114 0 0,0 0.2873193795129936,0.6631727416994172 l -19.32704659763058 8.176591338267922" fill="red" stroke="none" /><path d="M 119.34039704204932 91.81776055985345 l 19.32233345571085 -8.174597374254734 a41.9803863740603,41.9803863740603 0 0,0 0.2758277569408812,0.6679387918937714 l -19.46018289953793 7.840784011907659" fill="red" stroke="none" /><path d="M 119.61058180528143 92.48833698450437 l 24.074163406260983 -9.221399175373108 a46.779828286141225,46.779828286141225 0 0,0 0.28155979266905384,0.7544402616312749 l -24.22932778743166 8.8056357767125" fill="red" stroke="none" /><path d="M 119.97218684219823 93.5106431181261 l 41.74930177876876 -13.565170451893483 a64.89781370869885,64.89781370869885 0 0,0 0.33606101696445395,1.06540526073158 l -41.97661827950142 12.844515024735484" fill="red" stroke="none" /><path d="M 120.28053869075195 94.5502522615342 l 20.26783466519512 -5.446333936909366 a41.98684529337403,41.98684529337403 0 0,0 0.18155045551583235,0.6995879641942381 l -20.358581452581255 5.096649547166278" fill="red" stroke="none" /><path d="M 120.37134235888165 94.90015583598534 l 14.960771724245598 -3.7453400479416357 a36.42245968254422,36.42245968254422 0 0,0 0.1470204721382132,0.6094947729398047 l -15.023024996644631 3.487260043342425" fill="red" stroke="none" /><path d="M 120.45610955862082 95.25157060432595 l 49.042917524027196 -11.384219005737945 a71.34687876759729,71.34687876759729 0 0,0 0.2673999918521454,1.198701731603833 l -49.231611902881376 10.538339104584148" fill="red" stroke="none" /><path d="M 120.67395015179393 96.31383870115 l 9.251540561109852 -1.6495478861423538 a30.397447046008693,30.397447046008693 0 0,0 0.08741167817362193,0.5159086726721072 l -9.278564100803697 1.4900534251544086" fill="red" stroke="none" /><path d="M 120.73433829027371 96.67025291283417 l 24.942501171142965 -4.005539962671614 a46.2620805767266,46.2620805767266 0 0,0 0.11949739183445965,0.7873385076529097 l -25.007754456416723 3.5756023426266226" fill="red" stroke="none" /><path d="M 120.83666639777658 97.38593545837742 l 12.863565949044705 -1.6137990110457157 a33.96440033991062,33.96440033991062 0 0,0 0.06778266803287804,0.5807205055279242 l -12.889438970081173 1.3921347671929387" fill="red" stroke="none" /><path d="M 120.87857604477298 97.74499172005257 l 42.31655106612516 -4.570434919905382 a63.56265228447434,63.56265228447434 0 0,0 0.108125744707737,1.088811493335765 l -42.38895393651512 3.8413478958651814" fill="red" stroke="none" /><path d="M 120.94382443527127 98.46500227214037 l 8.423445532155366 -0.6173643114976004 a29.446038913378217,29.446038913378217 0 0,0 0.03269829641528395,0.5058281729358854 l -8.432824419575065 0.4722770743086797" fill="red" stroke="none" /><path d="M 120.96714384426684 98.82574320788733 l 25.180262555142036 -1.4102108781325875 a46.21972079676323,46.21972079676323 0 0,0 0.03765012625180201,0.7947346587951027 l -25.200806289627334 0.9765651127144851" fill="red" stroke="none" /><path d="M 120.98425023603335 99.18683210126433 l 25.35398109773904 -0.9825008423903326 a46.37301057048229,46.37301057048229 0 0,0 0.024043976576333927,0.7979025272805393 l -25.36713676877102 0.5459281676847942" fill="red" stroke="none" /><line stroke="#e1ed5e" stroke-width="0.3" x1="184.98032266829074" x2="189.97916517819016" y1="98.17113171792111" y2="98.06355123074" /><path d="M 185.9800911702706 98.14961562048488 a86.0,86.0 0 0,1 -9.607161424134198,41.387399972396054" fill="none" id="id28" stroke="none" /><text fill="#e1ed5e" style="font-size:6.75px; font-family:Arial;" text-anchor="middle"><textPath startOffset="21.466115282336823" xlink:href="#id28">April</textPath></text><path d="M 120.99980553446 99.90962569577887 l 28.27885281957205 -0.12170025305933316 a49.279114691634405,49.279114691634405 0 0,0 -0.0036506501093651203,0.8482825182637803 l -28.27675787217318 -0.36509174340813194" fill="red" stroke="none" /><path d="M 120.99824983174949 100.27111621757518 l 12.960257820672387 0.16733471157330065 a33.961338036020706,33.961338036020706 0 0,0 -0.012578531351306717,0.5844749255053535 l -12.955457226636073 -0.390399452868769" fill="red" stroke="none" /><path d="M 120.9764740272857 100.99374915477107 l 20.976237424646722 0.9937379458485256 a41.99976313200149,41.99976313200149 0 0,0 -0.040427070226531504,0.721852496264384 l -20.95602400353266 -1.354662158448333" fill="red" stroke="none" /><path d="M 120.95626037817324 101.35467743843564 l 33.611208909930376 2.172732423016341 a54.68136176832834,54.68136176832834 0 0,0 -0.0688033216590263,0.9387666595438493 l -33.568829029607016 -2.7509722190569605" fill="red" stroke="none" /><path d="M 120.92983693683757 101.71520430193887 l 27.490170233780272 2.2528249211069205 a48.58232549310118,48.58232549310118 0 0,0 -0.07547704681004576,0.8328829221479843 l -27.44731859069315 -2.725689231803475" fill="red" stroke="none" /><path d="M 120.8583938346157 102.4346265915055 l 33.43266412628316 3.9023164368312884 a54.65963612628669,54.65963612628669 0 0,0 -0.117123863371398,0.9335924302671594 l -33.360538753664905 -4.477226621385842" fill="red" stroke="none" /><path d="M 120.81339534386255 102.79330883721812 l 25.009129342467272 3.356406816346015 a46.23335128723633,46.23335128723633 0 0,0 -0.11264634729972775,0.7878482906503758 l -24.94764894415094 -3.7864005789768" fill="red" stroke="none" /><path d="M 120.70491114924044 103.5080841355445 l 12.45687924799892 2.11059975835258 a33.634416169304544,33.634416169304544 0 0,0 -0.10162968408508044,0.5699932402233782 l -12.41870312157465 -2.3247117493091762" fill="red" stroke="none" /><path d="M 120.64145759157962 103.86396538481128 l 26.523216608918055 4.964997768012185 a47.98392525412032,47.98392525412032 0 0,0 -0.15896404266761305,0.8105542288236646 l -26.433822633274776 -5.420815723903794" fill="red" stroke="none" /><path d="M 120.5718875245553 104.21870165774334 l 34.971321425947416 7.171610844995065 a56.69909416762531,56.69909416762531 0 0,0 -0.20429483160222342,0.9543974399941352 l -34.84269255562075 -7.772522104405369" fill="red" stroke="none" /><path d="M 120.41448212921028 104.9243191809786 l 20.44874364119373 4.932583638512305 a42.03524418337425,42.03524418337425 0 0,0 -0.17572470667355303,0.7019328523448521 l -20.360807620225117 -5.283844330254554" fill="red" stroke="none" /><path d="M 120.13307415673323 105.97154293290107 l 8.080319583302119 2.396652142023365 a29.42825640676415,29.42825640676415 0 0,0 -0.14822484093621535,0.4844073564114516 l -8.037867969859771 -2.535386470986874" fill="red" stroke="none" /><path d="M 120.02730092923936 106.31721596034902 l 40.048587933553414 12.632534947029109 a62.9936939868294,62.9936939868294 0 0,0 -0.3350897026400043,1.0313000612920997 l -39.82520597989716 -13.320033908299004" fill="red" stroke="none" /><path d="M 119.79798401119884 107.00284435728193 l 24.13843302886345 8.53812637863466 a46.60397529967686,46.60397529967686 0 0,0 -0.2740219185819886,0.7539906322065268 l -23.987886849276233 -8.952364807847317" fill="red" stroke="none" /><path d="M 119.67450827220406 107.3425965602758 l 23.19664679517131 8.657071201560283 a45.75942859455395,45.75942859455395 0 0,0 -0.28175980380039456,0.7355859375572842 l -23.04419271177741 -9.055080705950711" fill="red" stroke="none" /><path d="M 119.54520255179757 107.68017299344265 l 58.635607655392704 23.040518980327946 a84.0,84.0 0 0,0 -0.5403895429704302,1.341202528628746 l -58.230315498164885 -24.046420876799505" fill="red" stroke="none" /><line stroke="#e1ed5e" stroke-width="0.3" x1="174.80103733775053" x2="179.2010983576182" y1="140.37084112569926" y2="142.7455964860345" /><path d="M 175.68104954172406 140.8457921977663 a86.0,86.0 0 0,1 -30.038265399797805,32.042727171017184" fill="none" id="id29" stroke="none" /><text fill="#e1ed5e" style="font-size:6.75px; font-family:Arial;" text-anchor="middle"><textPath startOffset="22.206326154141568" xlink:href="#id29">May</textPath></text><line stroke="#e1ed5e" stroke-width="0.3" x1="143.8653032363475" x2="146.44561519142675" y1="172.8068346515853" y2="177.08958963109032" /><path d="M 144.38136562736335 173.6633856474863 a86.0,86.0 0 0,1 -40.68145358897372,12.25698825130547" fill="none" id="id30" stroke="none" /><text fill="#e1ed5e" style="font-size:6.75px; font-family:Arial;" text-anchor="middle"><textPath startOffset="21.466115282336833" xlink:href="#id30">June</textPath></text><line stroke="#e1ed5e" stroke-width="0.3" x1="102.19456741930631" x2="102.32365962044197" y1="184.97166512339345" y2="189.96999836594603" /><path d="M 102.22038585953345 185.97133177190398 a86.0,86.0 0 0,1 -42.740103519485714,-10.115201625700543" fill="none" id="id31" stroke="none" /><text fill="#e1ed5e" style="font-size:6.75px; font-family:Arial;" text-anchor="middle"><textPath startOffset="22.20632615414155" xlink:href="#id31">July</textPath></text><line stroke="#e1ed5e" stroke-width="0.3" x1="58.666819895761336" x2="56.23545636021788" y1="174.27360380694188" y2="178.64263932499728" /><path d="M 58.180547188652646 175.14741091055294 a86.0,86.0 0 0,1 -31.652253787137756,-30.449443065178592" fill="none" id="id32" stroke="none" /><text fill="#e1ed5e" style="font-size:6.75px; font-family:Arial;" text-anchor="middle"><textPath startOffset="22.20632615414155" xlink:href="#id32">August</textPath></text><line stroke="#e1ed5e" stroke-width="0.3" x1="26.63291911575756" x2="22.317208475507996" y1="142.92168965132927" y2="145.44649492493687" /><path d="M 25.769776987707644 143.4266507060508 a86.0,86.0 0 0,1 -11.730757126820373,-40.83630448921669" fill="none" id="id33" stroke="none" /><text fill="#e1ed5e" style="font-size:6.75px; font-family:Arial;" text-anchor="middle"><textPath startOffset="21.46611528233685" xlink:href="#id33">September</textPath></text><line stroke="#e1ed5e" stroke-width="0.3" x1="15.007084014347285" x2="10.007500721073583" y1="101.09737516637583" y2="101.16192664675087" /><path d="M 14.007167355692545 101.11028546245083 a86.0,86.0 0 0,1 10.666146001902534,-42.60595125391555" fill="none" id="id34" stroke="none" /><text fill="#e1ed5e" style="font-size:6.75px; font-family:Arial;" text-anchor="middle"><textPath startOffset="22.20632615414155" xlink:href="#id34">October</textPath></text><line stroke="#e1ed5e" stroke-width="0.3" x1="26.266209847984243" x2="21.928928074336255" y1="57.711370442889674" y2="55.22380399835377" /><path d="M 25.398753493254645 57.213857153982495 a86.0,86.0 0 0,1 29.58750427330803,-30.492523968695096" fill="none" id="id35" stroke="none" /><text fill="#e1ed5e" style="font-size:6.75px; font-family:Arial;" text-anchor="middle"><textPath startOffset="21.46611528233685" xlink:href="#id35">November</textPath></text><line stroke="#e1ed5e" stroke-width="0.3" x1="56.762969772571076" x2="54.21961505331055" y1="26.818313649435495" y2="22.513508569990535" /><path d="M 56.25429882871897 25.957352633546506 a86.0,86.0 0 0,1 42.265352541879196,-11.944610805530505" fill="none" id="id36" stroke="none" /><text fill="#e1ed5e" style="font-size:6.75px; font-family:Arial;" text-anchor="middle"><textPath startOffset="22.20632615414155" xlink:href="#id36">December</textPath></text></svg>