<?xml version="1.0" encoding="utf-8" ?>
<svg baseProfile="full" height="200mm" version="1.1" viewBox="0,0,200,200" width="200mm" xmlns="http://www.w3.org/2000/svg" xmlns:ev="http://www.w3.org/2001/xml-events" xmlns:xlink="http://www.w3.org/1999/xlink"><defs /><rect fill="#1a1a1a" height="200" width="200" x="0" y="0" /><text alignment-baseline="middle" fill="#e1ed5e" style="dominant-baseline: central; font-size:9.0px; font-family:Arial;" text-anchor="middle" x="100.0" y="100.0">2025</text><line stroke="#e1ed5e" stroke-width="0.3" x1="100.0" x2="100.0" y1="15.0" y2="10.0" /><path d="M 100.0 14.0 a86.0,86.0 0 0,1 42.46469731375804,11.215312516191453" fill="none" id="id13" stroke="none" /><text fill="#e1ed5e" style="font-size:6.75px; font-family:Arial;" text-anchor="middle"><textPath startOffset="22.20632615414155" xlink:href="#id13">January</textPath></text><path d="M 100.72285384407766 79.0124445844662 l 2.038039920318704 -59.17306260069287 a80.20814930617516,80.20814930617516 0 0,0 1.3794242113814492,0.059400908237993044 l -3.056304964089485 59.12921396593068" fill="#48f6ff" stroke="none" /><path d="M 103.2404852339499 79.25152402106235 l 1.7317679229096377 -11.088322444162953 a32.222740964868905,32.222740964868905 0 0,0 0.5472814571581514,0.09030612971957046 l -1.9223785862066642 11.056870051503758" fill="#ff780b" stroke="none" /><path d="M 104.66035177308747 79.52364482259891 l 4.013420513688879 -17.63391003853702 a39.08486459631134,39.08486459631134 0 0,0 0.6547204553933048,0.15495117862207414 l -4.3163646560447075 17.56221294777408" fill="#ffd513" stroke="none" /><path d="M 105.71112130821622 79.79150937346287 l 3.5043161073832927 -12.399831029083314 a33.88549731016554,33.88549731016554 0 0,0 0.5599332878063781,0.163459881092407 l -3.7172396129130982 12.337672819072203" fill="#ff8f0d" stroke="none" /><path d="M 107.4271985657038 80.35727306442388 l 10.399819759725203 -27.504424166439833 a50.40492475355464,50.40492475355464 0 0,0 0.8089194385177583,0.3138481748273929 l -10.871722363242629 27.321333287721895" fill="#9fff22" stroke="none" /><path d="M 108.43124777332544 80.76684994638697 l 8.66029612367615 -19.755649381146178 a42.57049863634454,42.57049863634454 0 0,0 0.6685957940977132,0.2999794437120344 l -8.999074036240645 19.603649606917614" fill="#fdff18" stroke="none" /><path d="M 110.05341064243156 81.56283822128135 l 17.97598878517694 -32.96654490227601 a58.549024695703984,58.549024695703984 0 0,0 0.8806774528428291,0.49009604901778725 l -18.540790327091806 32.652233455698045" fill="#47ff2c" stroke="none" /><line stroke="#e1ed5e" stroke-width="0.3" x1="143.23703022742887" x2="145.7803849466894" y1="26.81831364943548" y2="22.513508569990506" /><path d="M 143.74570117128098 25.957352633546492 a86.0,86.0 0 0,1 28.547481713284135,27.462654790039103" fill="none" id="id14" stroke="none" /><text fill="#e1ed5e" style="font-size:6.75px; font-family:Arial;" text-anchor="middle"><textPath startOffset="19.985693538727396" xlink:href="#id14">February</textPath></text><path d="M 111.60114157652 82.49532879139004 l 9.988724626888365 -15.071735762703756 a39.081256554027696,39.081256554027696 0 0,0 0.5575505238228698,0.3764606025371109 l -10.246679845117777 14.897563247867975" fill="#ffd513" stroke="none" /><path d="M 113.89432698308785 84.25364557470407 l 12.033255761173839 -13.63721397490589 a39.18716165901628,39.18716165901628 0 0,0 0.5019483768369083,0.4506542087700102 l -12.266215125606738 13.428060757366582" fill="#ffd614" stroke="none" /><path d="M 116.82858285166822 87.43820079747576 l 11.79278278801859 -8.802795263737176 a35.71594136780455,35.71594136780455 0 0,0 0.3635158095033829,0.4958351556353308 l -11.9425612100356 8.59849766443035" fill="#ffa80f" stroke="none" /><path d="M 117.65298651832404 88.62581576622439 l 15.6431632639085 -10.079213552790854 a39.609113432510945,39.609113432510945 0 0,0 0.364351792967845,0.5763170372027882 l -15.814342653122301 9.80844886787386" fill="#ffdb14" stroke="none" /><line stroke="#e1ed5e" stroke-width="0.3" x1="172.23445277983987" x2="176.4835382374775" y1="55.19839476539836" y2="52.563006222186495" /><path d="M 173.08426987136738 54.67131705675599 a86.0,86.0 0 0,1 12.851231095245387,41.99856678651699" fill="none" id="id15" stroke="none" /><text fill="#e1ed5e" style="font-size:6.75px; font-family:Arial;" text-anchor="middle"><textPath startOffset="22.20632615414155" xlink:href="#id15">March</textPath></text><path d="M 118.3937258080291 89.86733742301442 l 25.138774041511713 -13.848347943217286 a49.70077875366091,49.70077875366091 0 0,0 0.40634386545421813,0.7528934697488399 l -25.3734260061844 13.413573490135986" fill="#a7ff21" stroke="none" /><path d="M 118.56541770881063 90.18545643968196 l 28.091014360438365 -14.850217130487847 a52.77473897014717,52.77473897014717 0 0,0 0.41765065639407883,0.8067681326193923 l -28.342474449992558 14.364476275608109" fill="#85ff25" stroke="none" /><path d="M 118.73160827565052 90.50648371742162 l 26.094602172866683 -13.225214139115991 a50.25465008482672,50.25465008482672 0 0,0 0.38442411136464627,0.7749755506338842 l -26.318386297184738 12.774078999983157" fill="#a1ff22" stroke="none" /><path d="M 118.89224826269711 90.83032412892265 l 39.78956258898988 -19.312544855415428 a65.22876529833923,65.22876529833923 0 0,0 0.4815802659679377,1.0143308584083717 l -40.11610104879958 18.624771581366517" fill="#35ff65" stroke="none" /><path d="M 119.196687751892 91.48605970444005 l 11.492244364201207 -5.096935661161176 a33.571811073211805,33.571811073211805 0 0,0 0.2297419589822333,0.5302761167029199 l -11.578277033026122 4.898360399871653" fill="#ff8b0c" stroke="none" /><path d="M 119.34039704204932 91.81776055985345 l 27.11859390733074 -11.472920030930641 a50.44564534098116,50.44564534098116 0 0,0 0.3314478594326541,0.8026272818245551 l -27.312063453649593 11.004418178652783" fill="#9fff22" stroke="none" /><path d="M 119.47837535516314 92.15188598940014 l 25.833184461129868 -10.408556833466243 a48.85123829847173,48.85123829847173 0 0,0 0.30754518092019373,0.7826689398854277 l -26.00852319193176 9.96233888868503" fill="#b1ff20" stroke="none" /><path d="M 119.61058180528143 92.48833698450437 l 13.688963565731465 -5.243438586277916 a35.65883254942192,35.65883254942192 0 0,0 0.21462441969694396,0.575086740239739 l -13.777192573930034 5.007028709008845" fill="#ffa70f" stroke="none" /><path d="M 120.08093135843002 93.85539295169968 l 9.56570249793511 -2.9270297249475483 a31.00350774927118,31.00350774927118 0 0,0 0.15176084597508177,0.5116621282701727 l -9.614669241021895 2.761938209930846" fill="#ff6709" stroke="none" /><path d="M 120.18372546131832 94.20196356495316 l 17.267497020497355 -4.960312062249347 a38.96583282533213,38.96583282533213 0 0,0 0.17963848159007711,0.6462551964728546 l -17.350322272653795 4.662345562357541" fill="#ffd313" stroke="none" /><path d="M 120.37134235888165 94.90015583598534 l 28.429821086708014 -7.117236291982282 a50.30716259650765,50.30716259650765 0 0,0 0.20306653810140943,0.8418418995106822 l -28.54812042507024 6.6268091608121935" fill="#a0ff22" stroke="none" /><path d="M 120.53481517161879 95.60439243477599 l 37.71335879130429 -8.072783895429465 a59.5676972496927,59.5676972496927 0 0,0 0.20599276738071362,1.004493890590665 l -37.8467308546 7.422414348675389" fill="#3cff2e" stroke="none" /><path d="M 120.67395015179393 96.31383870115 l 14.576117060501018 -2.598918842380186 a35.80599769386405,35.80599769386405 0 0,0 0.10296464510207796,0.6077031638868325 l -14.618693567123318 2.347629890177515" fill="#ffa90f" stroke="none" /><path d="M 120.78858239683441 97.02765380044208 l 19.540168054590225 -2.7938482358772263 a40.73888942080437,40.73888942080437 0 0,0 0.0932804189186983,0.6950474687680998 l -19.58536447256676 2.457082425044462" fill="#ffea16" stroke="none" /><path d="M 120.83666639777658 97.38593545837742 l 14.187636465214652 -1.7799103131538636 a35.2988499254996,35.2988499254996 0 0,0 0.07044582570271334,0.6035368140800923 l -14.216172643920954 1.5354297607489187" fill="#ffa20f" stroke="none" /><path d="M 120.96714384426684 98.82574320788733 l 31.919910488209243 -1.7876622573301535 a52.96992996428946,52.96992996428946 0 0,0 0.04314877970539951,0.9108025425267852 l -31.94595287614814 1.2379486081803686" fill="#82ff25" stroke="none" /><line stroke="#e1ed5e" stroke-width="0.3" x1="184.98032266829074" x2="189.97916517819016" y1="98.17113171792111" y2="98.06355123074" /><path d="M 185.9800911702706 98.14961562048488 a86.0,86.0 0 0,1 -9.607161424134198,41.387399972396054" fill="none" id="id16" stroke="none" /><text fill="#e1ed5e" style="font-size:6.75px; font-family:Arial;" text-anchor="middle"><textPath startOffset="21.466115282336823" xlink:href="#id16">April</textPath></text><path d="M 120.99513854157772 99.54816195383933 l 23.153006228665742 -0.49827768825572866 a44.15836734485504,44.15836734485504 0 0,0 0.00981365648055907,0.7600785094481891 l -23.158152892264017 0.09966292074707682" fill="#e9ff1a" stroke="none" /><path d="M 120.99824983174949 100.27111621757518 l 10.692372492622527 0.13805320016345624 a31.69326368360316,31.69326368360316 0 0,0 -0.011738486582790243,0.5454413460049277 l -10.688411943354728 -0.32208436195849877" fill="#ff710a" stroke="none" /><path d="M 120.9904718944345 100.63252640178507 l 20.06898995761762 0.6047584860976073 a41.07809977924863,41.07809977924863 0 0,0 -0.02738122778261627,0.7065878233187398 l -20.0556065969838 -0.9501235564303533" fill="#ffee16" stroke="none" /><path d="M 120.92983693683757 101.71520430193887 l 14.649136430228413 1.2004996455846109 a35.698244709845255,35.698244709845255 0 0,0 -0.05546045932659338,0.6120015472234203 l -14.626301374624745 -1.4524825813566018" fill="#ffa80f" stroke="none" /><path d="M 120.89721153311464 102.0752229133903 l 21.049722369272324 2.090368186779201 a42.15326100107835,42.15326100107835 0 0,0 -0.07791869410892034,0.7214303356351399 l -21.01062137366235 -2.4523948442991323" fill="#fffc17" stroke="none" /><path d="M 120.81339534386255 102.79330883721812 l 20.380061350469333 2.7351522677005304 a41.56278090571412,41.56278090571412 0 0,0 -0.10126662511571165,0.7082585401998086 l -20.32996067433702 -3.0855562798807488" fill="#fff417" stroke="none" /><path d="M 120.76222939487914 103.15116336523771 l 37.66851466732154 5.717095268770084 a59.09989731684865,59.09989731684865 0 0,0 -0.16130963960141723,1.0044752797801004 l -37.56452327335883 -6.36464977824339" fill="#41ff2d" stroke="none" /><path d="M 120.64145759157962 103.86396538481128 l 11.617159265539504 2.174667223607106 a32.81894948522674,32.81894948522674 0 0,0 -0.10872459596931036,0.5543843724730819 l -11.57800473659453 -2.374315323148133" fill="#ff810b" stroke="none" /><path d="M 120.5718875245553 104.21870165774334 l 14.438473588253736 2.960915102678025 a35.73894629218682,35.73894629218682 0 0,0 -0.1287724631511341,0.6015820772817041 l -14.385367086378158 -3.209010999375898" fill="#ffa80f" stroke="none" /><path d="M 120.49622156327973 104.57218783832717 l 27.996680721534332 6.245350281432303 a49.684813605134664,49.684813605134664 0 0,0 -0.19339088313950842,0.8331228630553504 l -27.885029272464273 -6.726341801836219" fill="#a7ff21" stroke="none" /><path d="M 120.32669344350535 105.2749913415812 l 20.16943156571388 5.2341802255963845 a41.837528939824885,41.837528939824885 0 0,0 -0.1868980509976923,0.6955171755439647 l -20.076345438374407 -5.580588334315898" fill="#fff817" stroke="none" /><path d="M 120.02730092923936 106.31721596034902 l 60.08190278771807 18.951647881047055 a84.0,84.0 0 0,0 -0.4468309959350121,1.375204400088819 l -59.746779540766816 -19.98305118111367" fill="#4dd2ff" stroke="none" /><path d="M 119.41010516605496 108.01547362559984 l 20.213567122528037 8.347266166968723 a42.86927406840856,42.86927406840856 0 0,0 -0.2875283423587305,0.6796320668367694 l -20.066887798976996 -8.693972759471656" fill="#f9ff18" stroke="none" /><path d="M 119.12269723197855 108.67885076344098 l 8.902446470384511 4.040382139020826 a30.776412480423488,30.776412480423488 0 0,0 -0.2230929134346601,0.48052228826096244 l -8.831578940110019 -4.193024494560619" fill="#ff6409" stroke="none" /><path d="M 118.97047184881838 109.00673069616215 l 18.702017608401807 8.879274981462817 a41.70282557578561,41.70282557578561 0 0,0 -0.3134597717667791,0.6458199735571072 l -18.546404580020315 -9.1998839109852" fill="#fff617" stroke="none" /><path d="M 118.81262510543309 109.33194174019688 l 19.156482268446045 9.50251097198684 a42.38383800149117,42.38383800149117 0 0,0 -0.32982967551271275,0.6507852407360059 l -18.99007392314706 -9.83085042442554" fill="#ffff18" stroke="none" /><line stroke="#e1ed5e" stroke-width="0.3" x1="174.80103733775053" x2="179.2010983576182" y1="140.37084112569926" y2="142.7455964860345" /><path d="M 175.68104954172406 140.8457921977663 a86.0,86.0 0 0,1 -30.038265399797805,32.042727171017184" fill="none" id="id17" stroke="none" /><text fill="#e1ed5e" style="font-size:6.75px; font-family:Arial;" text-anchor="middle"><textPath startOffset="22.206326154141568" xlink:href="#id17">May</textPath></text><path d="M 118.48025628344425 109.97397251340804 l 20.08401971456214 10.839539101589454 a43.82243317067239,43.82243317067239 0 0,0 -0.36398410191428315,0.6607368713036587 l -19.894459203196348 -11.183646491290917" fill="#edff19" stroke="none" /><path d="M 117.14729908036423 112.12312394758627 l 17.697644563255395 12.5122176743484 a42.673998574734654,42.673998574734654 0 0,0 -0.4292195637675564,0.596148433469213 l -17.479645207112238 -12.814999713268744" fill="#fcff18" stroke="none" /><path d="M 116.93607887273984 112.41649034213515 l 35.47000705790077 26.00442542687818 a64.98126353880251,64.98126353880251 0 0,0 -0.669117434103955,0.8963921485905733 l -35.017128357101726 -26.611130454978067" fill="#35ff62" stroke="none" /><path d="M 116.498646956653 112.99209946851258 l 15.628393122844535 12.306805431892514 a40.89231337830353,40.89231337830353 0 0,0 -0.44023902807019477,0.5492658773626273 l -15.414236182719486 -12.573999142833392" fill="#ffec16" stroke="none" /><path d="M 116.27256486870786 113.27417163493432 l 18.22632723836848 14.867932497957417 a44.52136095900726,44.52136095900726 0 0,0 -0.48953144455324793,0.5896721604153494 l -17.967699793921685 -15.179465915486537" fill="#e5ff1a" stroke="none" /><path d="M 116.0416608686014 113.55231037782055 l 15.43117323908882 13.03655843014235 a41.200815905237256,41.200815905237256 0 0,0 -0.4623467085649788,0.5378136748978806 l -15.204484020953062 -13.300249204201759" fill="#fff016" stroke="none" /><path d="M 115.56566222782051 114.09645910891815 l 16.5584473529032 14.995537780602131 a43.33938969775882,43.33938969775882 0 0,0 -0.5055304372256774,0.5486534461345305 l -16.2978705076818 -15.278342481537996" fill="#f3ff19" stroke="none" /><path d="M 115.32070863581623 114.36230785411682 l 25.65188406695833 24.047207264714203 a56.16087788177073,56.16087788177073 0 0,0 -0.6672271952527531,0.6995850466833383 l -25.234150320326613 -24.485199427980046" fill="#60ff29" stroke="none" /><path d="M 114.81725581225074 114.88116024355365 l 12.442554913044479 12.49621764288788 a38.6344160136521,38.6344160136521 0 0,0 -0.4752953912885904,0.4651765767951652 l -12.225609569380094 -12.708544322605617" fill="#ffcf13" stroke="none" /><path d="M 114.55890576462653 115.13401014063108 l 14.32483882349392 14.890697111619362 a41.66237807681071,41.66237807681071 0 0,0 -0.521105417849533,0.49273769833694525 l -14.06639757125358 -15.135069446702229" fill="#fff617" stroke="none" /><path d="M 114.0293411484842 115.62618273729858 l 10.236516225971288 11.401652540014815 a36.322661162076244,36.322661162076244 0 0,0 -0.46883500336969786,0.41369237996262387 l -10.038738869695 -11.576168061749728" fill="#ffb010" stroke="none" /><path d="M 113.48314897796784 116.09983520530334 l 22.555657396638807 26.933053074364118 a56.13042881180162,56.13042881180162 0 0,0 -0.7460799704271215,0.6139730227957382 l -22.088707297666993 -27.317321216017035" fill="#60ff29" stroke="none" /><path d="M 113.20401910651253 116.32954008644616 l 16.088792041756378 19.897167102611647 a46.58801453947012,46.58801453947012 0 0,0 -0.6279232592653393,0.49886021351252047 l -15.743911289773685 -20.171161230129293" fill="#ccff1d" stroke="none" /><path d="M 112.92097659922987 116.55440617244103 l 10.75958578336471 13.785223735770701 a38.48716900115167,38.48716900115167 0 0,0 -0.5257553860974368,0.4031268106997385 l -10.520701668773778 -13.968389888297812" fill="#ffcd13" stroke="none" /><path d="M 112.63410532772338 116.77436683061366 l 14.152755763474882 18.790686849797602 a44.52425148623709,44.52425148623709 0 0,0 -0.6161626982268607,0.4558224337785489 l -13.827208094829457 -19.03151923231592" fill="#e5ff1a" stroke="none" /><path d="M 112.34349029814194 116.9893568818739 l 11.896192450017168 16.3737042106493 a41.23901144783707,41.23901144783707 0 0,0 -0.5778816236012121,0.41230319473072974 l -11.612583498567071 -16.57605166722425" fill="#fff016" stroke="none" /><path d="M 112.04921762599082 117.19931262002967 l 2.53038192014635 3.6119216237568175 a25.41008055232165,25.41008055232165 0 0,0 -0.36039131208033176,0.24788043067228505 l -2.467833723443135 -3.654942843794197" fill="#ff1602" stroke="none" /><path d="M 111.7513745106137 117.40417183066458 l 11.616413652733822 17.204290364982935 a41.758821573347205,41.758821573347205 0 0,0 -0.5991899757549015,0.3971104430996181 l -11.318548978238956 -17.40169882917387" fill="#fff717" stroke="none" /><path d="M 111.45004920935366 117.60387380957326 l 16.872760490487693 25.94101920986113 a51.945541265515885,51.945541265515885 0 0,0 -0.7537500821964196,0.481078964908584 l -16.423728606244342 -26.22761260359352" fill="#8eff24" stroke="none" /><line stroke="#e1ed5e" stroke-width="0.3" x1="143.8653032363475" x2="146.44561519142675" y1="172.8068346515853" y2="177.08958963109032" /><path d="M 144.38136562736335 173.6633856474863 a86.0,86.0 0 0,1 -40.68145358897372,12.25698825130547" fill="none" id="id18" stroke="none" /><text fill="#e1ed5e" style="font-size:6.75px; font-family:Arial;" text-anchor="middle"><textPath startOffset="21.466115282336833" xlink:href="#id18">June</textPath></text><path d="M 110.5260780823613 118.17145234162733 l 6.59349572307088 11.382529405446766 a34.15432102071461,34.15432102071461 0 0,0 -0.5112596632300405,0.2903065798395968 l -6.396587292919641 -11.494339151080991" fill="#ff930d" stroke="none" /><path d="M 110.21172684928248 118.3499491758327 l 9.34848194791454 16.798742381899345 a40.2247720492053,40.2247720492053 0 0,0 -0.6079250022000644,0.33148918256891763 l -9.057934133845826 -16.957172216228035" fill="#ffe315" stroke="none" /><path d="M 109.89434966115114 118.52300852407294 l 8.355881750352024 15.642874386744568 a38.73471958913744,38.73471958913744 0 0,0 -0.590813479642185,0.3090856889792963 l -8.085377368183345 -15.78438949466858" fill="#ffd013" stroke="none" /><path d="M 109.57404056367764 118.69057910512821 l 10.690414812669115 20.869980902407445 a44.44869019228551,44.44869019228551 0 0,0 -0.6839724068693653,0.34295796383855 l -10.329588498116989 -21.0509067071553" fill="#e6ff1a" stroke="none" /><path d="M 109.2508944713604 118.85261126421891 l 12.11278331824472 24.684920569956738 a48.49663294405009,48.49663294405009 0 0,0 -0.7525923010051668,0.3612900394412946 l -11.68607834923932 -24.88976488589759" fill="#b5ff1f" stroke="none" /><path d="M 108.59647513512805 119.15986991738527 l 8.519247089616588 18.987743635076026 a41.8113425642199,41.8113425642199 0 0,0 -0.6591843375150223,0.288967041924602 l -8.191142077443812 -19.131575230295084" fill="#fff817" stroke="none" /><path d="M 108.2653958097858 119.30500536409082 l 7.003634323240451 16.357982278139847 a38.79422597208457,38.79422597208457 0 0,0 -0.6161419794473835,0.2575473973796004 l -6.721020884295606 -16.47611471853942" fill="#ffd113" stroke="none" /><path d="M 107.93186726928326 119.44442032107085 l 5.8316031482834125 14.295769068151468 a36.43944974825804,36.43944974825804 0 0,0 -0.5828211033843523,0.23191654509338883 l -5.584660968857194 -14.394032457650926" fill="#ffb210" stroke="none" /><path d="M 106.91757812671514 119.82793768551818 l 11.458914592819603 32.84482521601715 a55.786337362767156,55.786337362767156 0 0,0 -0.909397703230954,0.3085170758669247 l -10.891847156651421 -33.0372052787822" fill="#64ff29" stroke="none" /><path d="M 106.2309692047433 120.05430185196036 l 6.774830875408883 21.804714308009117 a43.83295643240908,43.83295643240908 0 0,0 -0.7224611031203421,0.21767160393136153 l -6.3984947978482944 -21.918101281046205" fill="#edff1a" stroke="none" /><path d="M 105.88484417918355 120.15858648285463 l 6.610442119548085 22.644128731256007 a44.58928805652238,44.58928805652238 0 0,0 -0.7386296929176045,0.2087441291910989 l -6.219681258525875 -22.754561653785625" fill="#e4ff1a" stroke="none" /><path d="M 105.53697534728816 120.25689768951611 l 3.6281349118900716 13.273448607625504 a34.76037066645194,34.76037066645194 0 0,0 -0.5785277028257063,0.1527944244727361 l -3.399116766252868 -13.333934381401825" fill="#ff9b0e" stroke="none" /><path d="M 104.83641907484287 120.43548508189849 l 1.02765813260511 4.342198662514725 a25.462148637400382,25.462148637400382 0 0,0 -0.4273759213260775,0.0972693682772748 l -0.9527620618861705 -4.359244764369684" fill="#ff1702" stroke="none" /><path d="M 104.48393922423573 120.51570834832081 l 4.598997946313699 21.04214527510242 a42.538863941459695,42.538863941459695 0 0,0 -0.7166958706467801,0.15019058799745857 l -4.236110614237541 -21.11819184382642" fill="#fdff18" stroke="none" /><path d="M 104.13013068566511 120.58985236759428 l 3.035990835876098 15.135260324091037 a36.43675307289483,36.43675307289483 0 0,0 -0.6160108267015063,0.11805994105546797 l -2.7750123946028875 -15.185277463494973" fill="#ffb210" stroke="none" /><path d="M 103.7750983002368 120.6578951692458 l 5.287054177580409 28.931540921127244 a50.41066136535407,50.41066136535407 0 0,0 -0.8549432806688119,0.14864284806852 l -4.7882619254395475 -29.01826234771677" fill="#9fff22" stroke="none" /><path d="M 103.41894727170886 120.7198165907248 l 4.77060711815137 28.911269071750628 a50.30222127441742,50.30222127441742 0 0,0 -0.855530924764313,0.1336163355660681 l -4.27224032977854 -28.989103714663802" fill="#a0ff22" stroke="none" /><path d="M 101.62511606390274 120.93702456842531 l 0.8208621125566772 10.575497098105917 a31.607306608177105,31.607306608177105 0 0,0 -0.5427986568755648,0.037434573367939254 l -0.638700694902182 -10.588060015990141" fill="#ff700a" stroke="none" /><path d="M 101.26447882468166 120.96189622390904 l 0.9868316486234974 16.359200490464957 a37.388937652878965,37.388937652878965 0 0,0 -0.6427548858111342,0.03322308578850986 l -0.7050886943988836 -16.37376338301567" fill="#ffbe11" stroke="none" /><line stroke="#e1ed5e" stroke-width="0.3" x1="102.19456741930631" x2="102.32365962044197" y1="184.97166512339345" y2="189.96999836594603" /><path d="M 102.22038585953345 185.97133177190398 a86.0,86.0 0 0,1 -42.740103519485714,-10.115201625700543" fill="none" id="id19" stroke="none" /><text fill="#e1ed5e" style="font-size:6.75px; font-family:Arial;" text-anchor="middle"><textPath startOffset="22.20632615414155" xlink:href="#id19">July</textPath></text><path d="M 99.81925306533755 120.99922214144158 l -0.25219695513109136 29.30030262523307 a50.301387974538294,50.301387974538294 0 0,0 -0.8657594889688736,-0.014904834741017598 l 0.7565161339926327 -29.291620313212892" fill="#a0ff22" stroke="none" /><path d="M 99.09653310690486 120.98055641714683 l -1.2647831235389604 29.37114119141282 a50.39836068959451,50.39836068959451 0 0,0 -0.8664004543497239,-0.044783007111241974 l 1.7701716463021733 -29.345018377539375" fill="#9fff22" stroke="none" /><path d="M 97.65516085044442 120.86867818915974 l -1.336707661335168 11.896475723153522 a32.97133751940247,32.97133751940247 0 0,0 -0.5634528029062084,-0.06822628757731956 l 1.5412878872927658 -11.871703906850854" fill="#ff830c" stroke="none" /><path d="M 96.58105272829116 120.7198165907248 l -3.1333684189130797 18.98912553822419 a40.245905703683576,40.245905703683576 0 0,0 -0.6825533671621808,-0.11867065189912533 l 3.4597707575473104 -18.93237630780406" fill="#ffe415" stroke="none" /><path d="M 95.86986931433489 120.58985236759428 l -2.2248453191211475 11.09147388978096 a32.31241485014177,32.31241485014177 0 0,0 -0.5444003940864781,-0.11408439568670992 l 2.4154371746370122 -11.051533513367708" fill="#ff790b" stroke="none" /><path d="M 95.51606077576429 120.51570834832081 l -2.5265252746692117 11.559803350949675 a32.83268285200654,32.83268285200654 0 0,0 -0.5510885307955612,-0.12542595541884935 l 2.7251339548576357 -11.51460066195314" fill="#ff810b" stroke="none" /><path d="M 94.46302465271185 120.25689768951611 l -0.7758145883578986 2.838299930321534 a23.942419883356582,23.942419883356582 0 0,0 -0.39661055417010094,-0.11208610424421733 l 0.8245563106326135 -2.824525032738795" fill="#ff0000" stroke="none" /><path d="M 93.08242187328487 119.8279376855182 l -6.047758965267221 17.334764523620198 a39.35945123339288,39.35945123339288 0 0,0 -0.6377738742415132,-0.22868302039543484 l 6.3452524001384605 -17.228093962184804" fill="#ffd814" stroke="none" /><path d="M 92.40401165467489 119.57807347666478 l -4.914230543172641 12.66604979913069 a34.5859662646979,34.5859662646979 0 0,0 -0.5531760539542537,-0.2201201681210572 l 5.131527673168753 -12.579582786603567" fill="#ff990e" stroke="none" /><path d="M 90.7491055286396 118.85261126421891 l -8.17941478785791 16.669018097837235 a39.56768673308159,39.56768673308159 0 0,0 -0.6088639690394283,-0.30529703388502727 l 8.4651326645801 -16.525753223042905" fill="#ffdb14" stroke="none" /><path d="M 90.10565033884886 118.52300852407294 l -8.484123464545211 15.882953062604287 a39.00690281393604,39.00690281393604 0 0,0 -0.5895191015619158,-0.32145281799285363 l 8.756265377975767 -15.734559592851667" fill="#ffd413" stroke="none" /><line stroke="#e1ed5e" stroke-width="0.3" x1="58.666819895761336" x2="56.23545636021788" y1="174.27360380694188" y2="178.64263932499728" /><path d="M 58.180547188652646 175.14741091055294 a86.0,86.0 0 0,1 -31.652253787137756,-30.449443065178592" fill="none" id="id20" stroke="none" /><text fill="#e1ed5e" style="font-size:6.75px; font-family:Arial;" text-anchor="middle"><textPath startOffset="22.20632615414155" xlink:href="#id20">August</textPath></text><path d="M 88.8546689885994 117.79835938074946 l -6.058755660222503 9.675433643961254 a32.415889643342545,32.415889643342545 0 0,0 -0.47036721319833985,-0.3002106101176193 l 6.224404675467766 -9.569708605019832" fill="#ff7b0b" stroke="none" /><path d="M 88.24862548938628 117.40417183066458 l -6.09154609222376 9.0217799464838 a31.885745137401656,31.885745137401656 0 0,0 -0.4522356984687732,-0.31105183711207945 l 6.245938675315424 -8.91558732000662" fill="#ff740a" stroke="none" /><path d="M 85.97065885151581 115.62618273729859 l -12.185663733384281 13.572655070385 a39.240267714119895,39.240267714119895 0 0,0 -0.4987259586638018,-0.4555743385610322 l 12.41748924151494 -13.360887965237392" fill="#ffd714" stroke="none" /><path d="M 84.67929136418377 114.36230785411682 l -5.049304038558107 4.733440258845006 a27.9210496283334,27.9210496283334 0 0,0 -0.3256838761423706,-0.35346552420580146 l 5.130034322696207 -4.64582347983786" fill="#ff3b05" stroke="none" /><path d="M 83.95833913139862 113.55231037782056 l -12.011719811882937 10.147736970345687 a36.724438891690276,36.724438891690276 0 0,0 -0.4038009448455556,-0.4864042507874873 l 12.18461675662203 -9.939471462444438" fill="#ffb610" stroke="none" /><path d="M 83.50135304334701 112.99209946851258 l -15.233600853318727 11.99592051820506 a40.38980928316022,40.38980928316022 0 0,0 -0.4254262127284483,-0.5499207279821113 l 15.437833883265244 -11.731921796109695" fill="#ffe515" stroke="none" /><path d="M 83.06392112726016 112.41649034213515 l -12.226222429402448 8.96351356510381 a36.15998319012998,36.15998319012998 0 0,0 -0.3637009122435142,-0.5051487569255182 l 12.37870313402157 -8.751731202727154" fill="#ffae10" stroke="none" /><path d="M 82.05923443525364 110.91462005526583 l -7.623780381939486 4.638077787336345 a29.923776827858717,29.923776827858717 0 0,0 -0.26392646380273965,-0.4423559343552271 l 7.702487721440458 -4.506159759095007" fill="#ff5808" stroke="none" /><line stroke="#e1ed5e" stroke-width="0.3" x1="26.63291911575756" x2="22.317208475507996" y1="142.92168965132927" y2="145.44649492493687" /><path d="M 25.769776987707644 143.4266507060508 a86.0,86.0 0 0,1 -11.730757126820373,-40.83630448921669" fill="none" id="id21" stroke="none" /><text fill="#e1ed5e" style="font-size:6.75px; font-family:Arial;" text-anchor="middle"><textPath startOffset="21.46611528233685" xlink:href="#id21">September</textPath></text><path d="M 81.87401531095188 110.60418214915194 l -12.701063127632711 7.43045904560827 a35.714915093216575,35.714915093216575 0 0,0 -0.30586934224296836,-0.5333089800042063 l 12.827084466028056 -7.210730219745757" fill="#ffa80f" stroke="none" /><path d="M 81.69416730710424 110.29060199501025 l -12.899436499291786 7.251402828871903 a35.79791556219431,35.79791556219431 0 0,0 -0.29733337935758875,-0.5397464498521956 l 13.022346288100891 -7.028285860621885" fill="#ffa90f" stroke="none" /><path d="M 81.02952815118164 109.00673069616217 l -8.44395792354471 4.008991217149354 a30.34732239701692,30.34732239701692 0 0,0 -0.21998251332243857,-0.47382276313341193 l 8.511715053706975 -3.863048386737114" fill="#ff5e08" stroke="none" /><path d="M 80.87730276802145 108.67885076344099 l -10.75719615860467 4.882161703499977 a32.81324562065061,32.81324562065061 0 0,0 -0.22900350879088735,-0.5163424571627504 l 10.839640752126838 -4.696270909844531" fill="#ff800b" stroke="none" /><path d="M 80.73074385275274 108.34839909993369 l -13.414594429130945 5.811868771806784 a35.61947886618309,35.61947886618309 0 0,0 -0.23890326898777425,-0.5646967570022969 l 13.512648679311027 -5.580097489138328" fill="#ffa70f" stroke="none" /><path d="M 80.58989483394504 108.01547362559985 l -13.591635985392177 5.6127155848794 a35.70493607589491,35.70493607589491 0 0,0 -0.22969731056954695,-0.5700898874942757 l 13.686235910219112 -5.377926329542319" fill="#ffa80f" stroke="none" /><path d="M 80.20201598880116 107.00284435728193 l -21.064490493291526 7.450826725919408 a43.343401232615506,43.343401232615506 0 0,0 -0.24274197157438843,-0.7055217943933808 l 21.189623295809145 -7.08713222843673" fill="#f3ff19" stroke="none" /><path d="M 79.97269907076064 106.31721596034903 l -13.960325509917146 4.403508562362517 a35.638359744235125,35.638359744235125 0 0,0 -0.17950401584454037,-0.5866295098128087 l 14.034056298267817 -4.16255207999766" fill="#ffa70f" stroke="none" /><path d="M 79.50377843672027 104.57218783832718 l -28.76869628407546 6.417567397409133 a50.47580460624724,50.47580460624724 0 0,0 -0.18187144174709516,-0.8496428277218259 l 28.874901764546998 -5.921410750271144" fill="#9eff22" stroke="none" /><path d="M 79.4281124754447 104.21870165774334 l -11.515383247892935 2.361473459324 a32.75502480835089,32.75502480835089 0 0,0 -0.1085128224428895,-0.5533045438243367 l 11.55432600331149 -2.1629051884317083" fill="#ff800b" stroke="none" /><path d="M 79.18660465613746 102.79330883721812 l -15.258400219352088 2.047788141740908 a36.39520099015854,36.39520099015854 0 0,0 -0.07798710072451205,-0.6216339249671998 l 15.29138882932345 -1.7848364624862993" fill="#ffb110" stroke="none" /><path d="M 79.1416061653843 102.43462659150553 l -14.520716007606467 1.6948822426178 a35.619296124981524,35.619296124981524 0 0,0 -0.06584090941544209,-0.6096050494854042 l 14.54773921852296 -1.4446808712476138" fill="#ffa70f" stroke="none" /><path d="M 79.10278846688536 102.07522291339032 l -14.576689787838882 1.447555842614243 a35.64838909533649,35.64838909533649 0 0,0 -0.05538300410986943,-0.611146835361118 l 14.599447388225828 -1.1964276187045588" fill="#ffa70f" stroke="none" /><path d="M 79.0095281055655 100.63252640178507 l -12.683236433062941 0.38219635767797056 a33.688993674551085,33.688993674551085 0 0,0 -0.012477661000278032,-0.5797878766554615 l 12.687936156748226 -0.16381866523238017" fill="#ff8d0c" stroke="none" /><line stroke="#e1ed5e" stroke-width="0.3" x1="15.007084014347285" x2="10.007500721073583" y1="101.09737516637583" y2="101.16192664675087" /><path d="M 14.007167355692545 101.11028546245083 a86.0,86.0 0 0,1 10.666146001902534,-42.60595125391555" fill="none" id="id22" stroke="none" /><text fill="#e1ed5e" style="font-size:6.75px; font-family:Arial;" text-anchor="middle"><textPath startOffset="22.20632615414155" xlink:href="#id22">October</textPath></text><path d="M 79.00019446554 99.90962569577889 l -20.477526727534933 -0.08812663656020622 a41.47771635659062,41.47771635659062 0 0,0 0.009217914619505795,-0.7139376457790292 l 20.472975805797713 0.4406005403997073" fill="#fff316" stroke="none" /><path d="M 79.00486145842228 99.54816195383935 l -17.39293502637911 -0.37431473785014996 a38.396962388728014,38.396962388728014 0 0,0 0.01990846945064644,-0.660665179011768 l 17.383914862472817 0.6736500642869123" fill="#ffcc13" stroke="none" /><path d="M 79.03285615573316 98.82574320788736 l -14.63308946938153 -0.8195205234742409 a35.65601996816735,35.65601996816735 0 0,0 0.039594157752024045,-0.6125040956347613 l 14.616814720625092 1.0712836833620138" fill="#ffa70f" stroke="none" /><path d="M 79.21141760316559 97.0276538004421 l -14.52887553378902 -2.077334911652445 a35.67663260463732,35.67663260463732 0 0,0 0.09215462193965769,-0.6071838171313623 l 14.490965018410058 2.3271178411758995" fill="#ffa80f" stroke="none" /><path d="M 79.3925641242962 95.95851677861259 l -14.696339719683674 -2.882212554301224 a35.976299621886696,35.976299621886696 0 0,0 0.12441067661497744,-0.606670642727117 l 14.644549747153702 3.134758853191743" fill="#ffac0f" stroke="none" /><path d="M 79.46518482838121 95.60439243477599 l -14.495590832370363 -3.102873251726279 a35.82396627073126,35.82396627073126 0 0,0 0.13426415358839208,-0.6018798739819012 l 14.440032291779932 3.3519312952581393" fill="#ffaa0f" stroke="none" /><path d="M 79.62865764111835 94.90015583598534 l -14.190019462201771 -3.552386812153937 a35.627922080761515,35.627922080761515 0 0,0 0.15405457203676273,-0.5936351088726197 l 14.126768558294701 3.7961183465754202" fill="#ffa70f" stroke="none" /><path d="M 79.71946130924805 94.55025226153421 l -28.332007506006782 -7.613323106770559 a50.33709832359893,50.33709832359893 0 0,0 0.23206176423934477,-0.8348496364189906 l 28.196758971201078 8.099884046608492" fill="#a0ff22" stroke="none" /><path d="M 79.91906864156998 93.8553929516997 l -13.991669819358826 -4.2813409126778925 a35.63204375145612,35.63204375145612 0 0,0 0.18451377905249006,-0.5849591025333912 l 13.915900556538132 4.521550181637699" fill="#ffa70f" stroke="none" /><path d="M 80.14247586403 93.16781622104843 l -27.66065386223856 -9.516930174112513 a50.25207226890954,50.25207226890954 0 0,0 0.2884634521399928,-0.8155250241059927 l 27.49273732928876 9.991652824645117" fill="#a1ff22" stroke="none" /><path d="M 80.38941819471856 92.48833698450439 l -13.672903675667028 -5.23728698489107 a35.64163480920687,35.64163480920687 0 0,0 0.2243835245018281,-0.5710315951761642 l 13.580726601283509 5.471867584962998" fill="#ffa70f" stroke="none" /><path d="M 80.65960295795068 91.81776055985345 l -26.975998138618674 -11.412592793582965 a50.29081340364074,50.29081340364074 0 0,0 0.34415509979387654,-0.7943574202582548 l 26.775552328982116 11.87524935842782" fill="#a1ff22" stroke="none" /><path d="M 81.10775173730289 90.83032412892265 l -13.166831555944263 -6.390746931664832 a35.63581564406962,35.63581564406962 0 0,0 0.2725969982599007,-0.5495389143976501 l 13.05487454473095 6.616445434561444" fill="#ffa70f" stroke="none" /><path d="M 81.6062741919709 89.86733742301443 l -12.833756291003048 -7.069808664606463 a35.652218094575474,35.652218094575474 0 0,0 0.3007389526871325,-0.5349810394762946 l 12.710159697023485 7.289673214017542" fill="#ffa70f" stroke="none" /><line stroke="#e1ed5e" stroke-width="0.3" x1="26.266209847984243" x2="21.928928074336255" y1="57.711370442889674" y2="55.22380399835377" /><path d="M 25.398753493254645 57.213857153982495 a86.0,86.0 0 0,1 29.58750427330803,-30.492523968695096" fill="none" id="id23" stroke="none" /><text fill="#e1ed5e" style="font-size:6.75px; font-family:Arial;" text-anchor="middle"><textPath startOffset="21.46611528233685" xlink:href="#id23">November</textPath></text><path d="M 82.34701348167596 88.62581576622439 l -12.351481726998353 -7.958315074741807 a35.693327726598795,35.693327726598795 0 0,0 0.3372226817252208,-0.5136132797858687 l 12.212662409915213 8.169746418505342" fill="#ffa80f" stroke="none" /><path d="M 83.17141714833178 87.43820079747576 l -24.552671994370964 -18.32749306327681 a51.63871250636403,51.63871250636403 0 0,0 0.5378394686186678,-0.7077336958683047 l 24.233556585528188 18.74741153502614" fill="#91ff24" stroke="none" /><line stroke="#e1ed5e" stroke-width="0.3" x1="56.762969772571076" x2="54.21961505331055" y1="26.818313649435495" y2="22.513508569990535" /><path d="M 56.25429882871897 25.957352633546506 a86.0,86.0 0 0,1 42.265352541879196,-11.944610805530505" fill="none" id="id24" stroke="none" /><text fill="#e1ed5e" style="font-size:6.75px; font-family:Arial;" text-anchor="middle"><textPath startOffset="22.20632615414155" xlink:href="#id24">December</textPath></text></svg>