<?xml version="1.0" encoding="utf-8" ?>
<svg baseProfile="full" height="200mm" version="1.1" viewBox="0,0,200,200" width="200mm" xmlns="http://www.w3.org/2000/svg" xmlns:ev="http://www.w3.org/2001/xml-events" xmlns:xlink="http://www.w3.org/1999/xlink"><defs /><rect fill="#1a1a1a" height="200" width="200" x="0" y="0" /><text alignment-baseline="middle" fill="#e1ed5e" style="dominant-baseline: central; font-size:9.0px; font-family:Arial;" text-anchor="middle" x="100.0" y="100.0">2025</text><line stroke="#e1ed5e" stroke-width="0.3" x1="100.0" x2="100.0" y1="15.0" y2="10.0" /><path d="M 100.0 14.0 a86.0,86.0 0 0,1 42.46469731375804,11.215312516191453" fill="none" id="id13" stroke="none" /><text fill="#e1ed5e" style="font-size:6.75px; font-family:Arial;" text-anchor="middle"><textPath startOffset="22.20632615414155" xlink:href="#id13">January</textPath></text><path d="M 100.72285384407766 79.0124445844662 l 2.1685615322329816 -62.9626662466014 a84.0,84.0 0 0,0 1.4446366704426739,0.062209093903220936 l -3.2520390350649873 62.916009426173986" fill="#4dd2ff" stroke="none" /><path d="M 103.2404852339499 79.25152402106235 l 1.8426750442599682 -11.798448729918473 a32.941475777777775,32.941475777777775 0 0,0 0.5594886817436673,0.09232042637171696 l -2.0454929321425106 11.764982040607132" fill="#ff1602" stroke="none" /><path d="M 104.66035177308747 79.52364482259891 l 4.270450864033825 -18.76323353197541 a40.24306844444445,40.24306844444445 0 0,0 0.6741218210810229,0.15954285504737212 l -4.5927963720773715 18.686944764787167" fill="#ff8e0d" stroke="none" /><path d="M 105.71112130821622 79.79150937346287 l 3.728742028795719 -13.193949886739222 a34.710719555555556,34.710719555555556 0 0,0 0.5735694874112626,0.16744066168628646 l -3.955301733930409 13.127810896134232" fill="#ff3405" stroke="none" /><path d="M 107.4271985657038 80.35727306442388 l 11.065852463562042 -29.265882193432912 a52.288095999999996,52.288095999999996 0 0,0 0.839141362957789,0.3255738119843578 l -11.567976991519497 29.071065677558007" fill="#c0ff1e" stroke="none" /><path d="M 108.43124777332544 80.76684994638697 l 9.214925009228313 -21.02085482483409 a43.95193195555555,43.95193195555555 0 0,0 0.6902920517558837,0.3097139220925247 l -9.575399179450978 20.859120572225034" fill="#ffc712" stroke="none" /><path d="M 110.05341064243156 81.56283822128135 l 19.12721993065292 -35.07781197658171 a60.95376622222222,60.95376622222222 0 0,0 0.9168488776159363,0.5102254077420508 l -19.72819289734089 34.74337117127948" fill="#51ff2b" stroke="none" /><line stroke="#e1ed5e" stroke-width="0.3" x1="143.23703022742887" x2="145.7803849466894" y1="26.81831364943548" y2="22.513508569990506" /><path d="M 143.74570117128098 25.957352633546492 a86.0,86.0 0 0,1 28.547481713284135,27.462654790039103" fill="none" id="id14" stroke="none" /><text fill="#e1ed5e" style="font-size:6.75px; font-family:Arial;" text-anchor="middle"><textPath startOffset="19.985693538727396" xlink:href="#id14">February</textPath></text><path d="M 111.60114157652 82.49532879139004 l 10.62842968186365 -16.036970656525916 a40.23922933333333,40.23922933333333 0 0,0 0.5740706766173925,0.3876150834483456 l -10.902905052887585 15.8516436607789" fill="#ff8e0d" stroke="none" /><path d="M 113.89432698308785 84.25364557470407 l 12.803898143036298 -14.510578197205465 a40.35191688888889,40.35191688888889 0 0,0 0.5168677272643292,0.46404894889169496 l -13.051776857896616 14.288030239544472" fill="#ff900d" stroke="none" /><path d="M 116.82858285166822 87.43820079747576 l 12.548024627543716 -9.36655018125355 a36.65839022222222,36.65839022222222 0 0,0 0.3731080264549429,0.5089189287773084 l -12.707395266512286 9.149168808804747" fill="#ff5507" stroke="none" /><path d="M 117.65298651832404 88.62581576622439 l 16.64499392693313 -10.72471376435333 a40.8008916,40.8008916 0 0,0 0.3753145859847712,0.5936575430351279 l -16.827136109163856 10.436608573603996" fill="#ff970d" stroke="none" /><line stroke="#e1ed5e" stroke-width="0.3" x1="172.23445277983987" x2="176.4835382374775" y1="55.19839476539836" y2="52.563006222186495" /><path d="M 173.08426987136738 54.67131705675599 a86.0,86.0 0 0,1 12.851231095245387,41.99856678651699" fill="none" id="id15" stroke="none" /><text fill="#e1ed5e" style="font-size:6.75px; font-family:Arial;" text-anchor="middle"><textPath startOffset="22.20632615414155" xlink:href="#id15">March</textPath></text><path d="M 118.3937258080291 89.86733742301442 l 26.74872940928185 -14.735233758297808 a51.538854577777784,51.538854577777784 0 0,0 0.4213716145981806,0.7807376065930512 l -26.998409123098494 14.272615168372297" fill="#caff1d" stroke="none" /><path d="M 118.56541770881063 90.18545643968196 l 29.89003921666305 -15.801265369447359 a54.80967955555556,54.80967955555556 0 0,0 0.4337548435071505,0.8378762962620397 l -30.15760349333032 15.284416350924975" fill="#9eff22" stroke="none" /><path d="M 118.73160827565052 90.50648371742162 l 27.765771370245194 -14.07219277291968 a52.12819733333333,52.12819733333333 0 0,0 0.39875585449470724,0.8038674702492672 l -28.00388723769331 13.592165714171461" fill="#c2ff1e" stroke="none" /><path d="M 118.89224826269711 90.83032412892265 l 42.33779424760569 -20.54937268178176 a68.06129555555555,68.06129555555555 0 0,0 0.5024926758287326,1.0583777269046404 l -42.68524511727618 19.81755253923658" fill="#36ff6a" stroke="none" /><path d="M 119.196687751892 91.48605970444005 l 12.228238906787865 -5.423357264430894 a34.376943999999995,34.376943999999995 0 0,0 0.23525172476275782,0.5429934157761167 l -12.319781341393304 5.212064704068175" fill="#ff2f04" stroke="none" /><path d="M 119.34039704204932 91.81776055985345 l 28.85534231659645 -12.20767699072881 a52.33142444444445,52.33142444444445 0 0,0 0.3438381746517552,0.832631412918596 l -29.0612021781344 11.709171007356911" fill="#bfff1e" stroke="none" /><path d="M 119.47837535516314 92.15188598940014 l 27.487611758225334 -11.075149083235784 a50.63490724444445,50.63490724444445 0 0,0 0.3187743494693986,0.81124594901919 l -27.674179657576435 10.60035412932081" fill="#d6ff1c" stroke="none" /><path d="M 119.61058180528143 92.48833698450437 l 14.565641972381947 -5.579242634781289 a36.597623999999996,36.597623999999996 0 0,0 0.22027484501632358,0.5902270708809516 l -14.659521405899895 5.327692426871003" fill="#ff5407" stroke="none" /><path d="M 120.08093135843002 93.85539295169968 l 10.17831606682324 -3.114484658490467 a31.644159555555554,31.644159555555554 0 0,0 0.15489680919845175,0.5222350372885497 l -10.230418773133394 2.9388202344553873" fill="#ff0000" stroke="none" /><path d="M 120.18372546131832 94.20196356495316 l 18.37335442906463 -5.27798391916831 a40.11641355555555,40.11641355555555 0 0,0 0.18494283569565054,0.665337780417654 l -18.46148403532664 4.960934835331704" fill="#ff8c0c" stroke="none" /><path d="M 120.37134235888165 94.90015583598534 l 30.25054404589881 -7.573043434886066 a52.184072888888885,52.184072888888885 0 0,0 0.2106427490369715,0.8732501850151215 l -30.3764195951966 7.051208018211538" fill="#c1ff1e" stroke="none" /><path d="M 120.53481517161879 95.60439243477599 l 40.128624719644286 -8.589786902172486 a62.037677333333335,62.037677333333335 0 0,0 0.21453427655928115,1.0461453228006024 l -40.270538292118566 7.897765923208472" fill="#44ff2d" stroke="none" /><path d="M 120.67395015179393 96.31383870115 l 15.50961118650925 -2.765360663838131 a36.754214000000005,36.754214000000005 0 0,0 0.10569136022606467,0.6237963908990951 l -15.554914408255538 2.4979784846231983" fill="#ff5608" stroke="none" /><path d="M 120.78858239683441 97.02765380044208 l 20.791573488867574 -2.9727738651325812 a42.003021511111115,42.003021511111115 0 0,0 0.09617492028161874,0.7166148659664028 l -20.839664408207028 2.614440657101514" fill="#ffaa0f" stroke="none" /><path d="M 120.83666639777658 97.38593545837742 l 15.096251238768266 -1.8939006039325448 a36.214587111111115,36.214587111111115 0 0,0 0.07227336009273551,0.6191940126773585 l -15.12661495186459 1.6337628529303336" fill="#ff4d07" stroke="none" /><path d="M 120.96714384426684 98.82574320788733 l 33.96414825192735 -1.9021490036685473 a55.01737111111111,55.01737111111111 0 0,0 0.044816604961418094,0.9460076976677548 l -33.99185846512226 1.3172301993777926" fill="#9bff22" stroke="none" /><line stroke="#e1ed5e" stroke-width="0.3" x1="184.98032266829074" x2="189.97916517819016" y1="98.17113171792111" y2="98.06355123074" /><path d="M 185.9800911702706 98.14961562048488 a86.0,86.0 0 0,1 -9.607161424134198,41.387399972396054" fill="none" id="id16" stroke="none" /><text fill="#e1ed5e" style="font-size:6.75px; font-family:Arial;" text-anchor="middle"><textPath startOffset="21.466115282336823" xlink:href="#id16">April</textPath></text><path d="M 120.99513854157772 99.54816195383933 l 24.635787632257777 -0.5301887447584331 a45.64149208888889,45.64149208888889 0 0,0 0.010143262795985068,0.7856068818168365 l -24.641263902171477 0.106045604881134" fill="#ffe015" stroke="none" /><path d="M 120.99824983174949 100.27111621757518 l 11.377141068061782 0.14689450206123308 a32.378089333333335,32.378089333333335 0 0,0 -0.011992130914947401,0.5572272014440056 l -11.372926874461829 -0.34271151929535354" fill="#ff0d01" stroke="none" /><path d="M 120.9904718944345 100.63252640178507 l 21.354262582871236 0.6434888621012108 a42.36395582222222,42.36395582222222 0 0,0 -0.02823833454747446,0.7287059404514349 l -21.340022115472557 -1.0109720495666519" fill="#ffaf10" stroke="none" /><path d="M 120.92983693683757 101.71520430193887 l 15.587306914998205 1.2773829035041713 a36.63956022222222,36.63956022222222 0 0,0 -0.05692287830859101,0.6281392188283559 l -15.56300944041254 -1.5455035108810975" fill="#ff5407" stroke="none" /><line stroke="#e1ed5e" stroke-width="0.3" x1="174.80103733775053" x2="179.2010983576182" y1="140.37084112569926" y2="142.7455964860345" /><path d="M 175.68104954172406 140.8457921977663 a86.0,86.0 0 0,1 -30.038265399797805,32.042727171017184" fill="none" id="id17" stroke="none" /><text fill="#e1ed5e" style="font-size:6.75px; font-family:Arial;" text-anchor="middle"><textPath startOffset="22.206326154141568" xlink:href="#id17">May</textPath></text><line stroke="#e1ed5e" stroke-width="0.3" x1="143.8653032363475" x2="146.44561519142675" y1="172.8068346515853" y2="177.08958963109032" /><path d="M 144.38136562736335 173.6633856474863 a86.0,86.0 0 0,1 -40.68145358897372,12.25698825130547" fill="none" id="id18" stroke="none" /><text fill="#e1ed5e" style="font-size:6.75px; font-family:Arial;" text-anchor="middle"><textPath startOffset="21.466115282336833" xlink:href="#id18">June</textPath></text><line stroke="#e1ed5e" stroke-width="0.3" x1="102.19456741930631" x2="102.32365962044197" y1="184.97166512339345" y2="189.96999836594603" /><path d="M 102.22038585953345 185.97133177190398 a86.0,86.0 0 0,1 -42.740103519485714,-10.115201625700543" fill="none" id="id19" stroke="none" /><text fill="#e1ed5e" style="font-size:6.75px; font-family:Arial;" text-anchor="middle"><textPath startOffset="22.20632615414155" xlink:href="#id19">July</textPath></text><line stroke="#e1ed5e" stroke-width="0.3" x1="58.666819895761336" x2="56.23545636021788" y1="174.27360380694188" y2="178.64263932499728" /><path d="M 58.180547188652646 175.14741091055294 a86.0,86.0 0 0,1 -31.652253787137756,-30.449443065178592" fill="none" id="id20" stroke="none" /><text fill="#e1ed5e" style="font-size:6.75px; font-family:Arial;" text-anchor="middle"><textPath startOffset="22.20632615414155" xlink:href="#id20">August</textPath></text><line stroke="#e1ed5e" stroke-width="0.3" x1="26.63291911575756" x2="22.317208475507996" y1="142.92168965132927" y2="145.44649492493687" /><path d="M 25.769776987707644 143.4266507060508 a86.0,86.0 0 0,1 -11.730757126820373,-40.83630448921669" fill="none" id="id21" stroke="none" /><text fill="#e1ed5e" style="font-size:6.75px; font-family:Arial;" text-anchor="middle"><textPath startOffset="21.46611528233685" xlink:href="#id21">September</textPath></text><line stroke="#e1ed5e" stroke-width="0.3" x1="15.007084014347285" x2="10.007500721073583" y1="101.09737516637583" y2="101.16192664675087" /><path d="M 14.007167355692545 101.11028546245083 a86.0,86.0 0 0,1 10.666146001902534,-42.60595125391555" fill="none" id="id22" stroke="none" /><text fill="#e1ed5e" style="font-size:6.75px; font-family:Arial;" text-anchor="middle"><textPath startOffset="22.20632615414155" xlink:href="#id22">October</textPath></text><line stroke="#e1ed5e" stroke-width="0.3" x1="26.266209847984243" x2="21.928928074336255" y1="57.711370442889674" y2="55.22380399835377" /><path d="M 25.398753493254645 57.213857153982495 a86.0,86.0 0 0,1 29.58750427330803,-30.492523968695096" fill="none" id="id23" stroke="none" /><text fill="#e1ed5e" style="font-size:6.75px; font-family:Arial;" text-anchor="middle"><textPath startOffset="21.46611528233685" xlink:href="#id23">November</textPath></text><line stroke="#e1ed5e" stroke-width="0.3" x1="56.762969772571076" x2="54.21961505331055" y1="26.818313649435495" y2="22.513508569990535" /><path d="M 56.25429882871897 25.957352633546506 a86.0,86.0 0 0,1 42.265352541879196,-11.944610805530505" fill="none" id="id24" stroke="none" /><text fill="#e1ed5e" style="font-size:6.75px; font-family:Arial;" text-anchor="middle"><textPath startOffset="22.20632615414155" xlink:href="#id24">December</textPath></text></svg>