<?xml version="1.0" encoding="utf-8" ?>
<svg baseProfile="full" height="200mm" version="1.1" viewBox="0,0,200,200" width="200mm" xmlns="http://www.w3.org/2000/svg" xmlns:ev="http://www.w3.org/2001/xml-events" xmlns:xlink="http://www.w3.org/1999/xlink"><defs /><rect fill="#1a1a1a" height="200" width="200" x="0" y="0" /><text alignment-baseline="middle" fill="#e1ed5e" style="dominant-baseline: central; font-size:9.0px; font-family:Arial;" text-anchor="middle" x="100.0" y="100.0">2024</text><line stroke="#e1ed5e" stroke-width="0.3" x1="100.0" x2="100.0" y1="15.0" y2="10.0" /><path d="M 100.0 14.0 a86.0,86.0 0 0,1 42.35913384403234,11.155469271406648" fill="none" id="id1" stroke="none" /><text fill="#e1ed5e" style="font-size:6.75px; font-family:Arial;" text-anchor="middle"><textPath startOffset="22.145653131862478" xlink:href="#id1">January</textPath></text><line stroke="#e1ed5e" stroke-width="0.3" x1="143.13028292997686" x2="145.6673583964461" y1="26.7553504044142" y2="22.446841604673864" /><path d="M 143.63769802327073 25.89364864446614 a86.0,86.0 0 0,1 29.32050498858742,28.57503671076993" fill="none" id="id2" stroke="none" /><text fill="#e1ed5e" style="font-size:6.75px; font-family:Arial;" text-anchor="middle"><textPath startOffset="20.669276256404974" xlink:href="#id2">February</textPath></text><line stroke="#e1ed5e" stroke-width="0.3" x1="172.87174338648825" x2="177.1583165268699" y1="56.24261187166439" y2="53.66864786411523" /><path d="M 173.72905801456457 55.72781907015455 a86.0,86.0 0 0,1 12.242430191666344,42.057860355516425" fill="none" id="id3" stroke="none" /><text fill="#e1ed5e" style="font-size:6.75px; font-family:Arial;" text-anchor="middle"><textPath startOffset="22.145653131862474" xlink:href="#id3">March</textPath></text><line stroke="#e1ed5e" stroke-width="0.3" x1="184.99686870605535" x2="189.99668451229388" y1="99.2704041080226" y2="99.22748670261217" /><path d="M 185.99683186730306 99.26182062694052 a86.0,86.0 0 0,1 -10.086455211305974,41.156179273409016" fill="none" id="id4" stroke="none" /><text fill="#e1ed5e" style="font-size:6.75px; font-family:Arial;" text-anchor="middle"><textPath startOffset="21.40746469413373" xlink:href="#id4">April</textPath></text><line stroke="#e1ed5e" stroke-width="0.3" x1="174.33088141563837" x2="178.70328620479359" y1="141.23008692659167" y2="143.65538615756765" /><path d="M 175.20536237346943 141.71514677278685 a86.0,86.0 0 0,1 -30.301960400862466,31.631185727798858" fill="none" id="id5" stroke="none" /><text fill="#e1ed5e" style="font-size:6.75px; font-family:Arial;" text-anchor="middle"><textPath startOffset="22.145653131862474" xlink:href="#id5">May</textPath></text><line stroke="#e1ed5e" stroke-width="0.3" x1="143.1302829299769" x2="145.66735839644613" y1="173.24464959558577" y2="177.55315839532614" /><path d="M 143.63769802327073 174.10635135553383 a86.0,86.0 0 0,1 -40.68552437913181,11.842963189579606" fill="none" id="id6" stroke="none" /><text fill="#e1ed5e" style="font-size:6.75px; font-family:Arial;" text-anchor="middle"><textPath startOffset="21.407464694133747" xlink:href="#id6">June</textPath></text><line stroke="#e1ed5e" stroke-width="0.3" x1="101.45913802915013" x2="101.54496967792366" y1="184.9874750549273" y2="189.98673829345242" /><path d="M 101.47630435890484 185.9873277026323 a86.0,86.0 0 0,1 -42.54439059252881,-10.42667462771756" fill="none" id="id7" stroke="none" /><text fill="#e1ed5e" style="font-size:6.75px; font-family:Arial;" text-anchor="middle"><textPath startOffset="22.145653131862474" xlink:href="#id7">July</textPath></text><line stroke="#e1ed5e" stroke-width="0.3" x1="58.13341422392154" x2="55.67067388415222" y1="173.97424548756322" y2="178.32567169271397" /><path d="M 57.64086615596768 174.84453072859336 a86.0,86.0 0 0,1 -31.369924170532247,-30.572349798747897" fill="none" id="id8" stroke="none" /><text fill="#e1ed5e" style="font-size:6.75px; font-family:Arial;" text-anchor="middle"><textPath startOffset="22.145653131862474" xlink:href="#id8">August</textPath></text><line stroke="#e1ed5e" stroke-width="0.3" x1="26.387840678322732" x2="22.057713659400548" y1="142.50000000000003" y2="145.00000000000006" /><path d="M 25.521815274538298 143.00000000000003 a86.0,86.0 0 0,1 -11.493303480769221,-40.785679425670985" fill="none" id="id9" stroke="none" /><text fill="#e1ed5e" style="font-size:6.75px; font-family:Arial;" text-anchor="middle"><textPath startOffset="21.40746469413373" xlink:href="#id9">September</textPath></text><line stroke="#e1ed5e" stroke-width="0.3" x1="15.003131293944662" x2="10.003315487706104" y1="100.72959589197737" y2="100.7725132973878" /><path d="M 14.003168132696942 100.73817937305945 a86.0,86.0 0 0,1 10.791469493833604,-42.45332614584628" fill="none" id="id10" stroke="none" /><text fill="#e1ed5e" style="font-size:6.75px; font-family:Arial;" text-anchor="middle"><textPath startOffset="22.145653131862435" xlink:href="#id10">October</textPath></text><path d="M 79.56144815229197 95.17655741523228 l -17.621339952017138 -4.158588248254952 a39.10539913735899,39.10539913735899 0 0,0 0.1597967155497235,-0.6520251302057614 l 17.547355709951116 4.460469203068831" fill="#ff920d" stroke="none" /><path d="M 79.83685265289637 94.1308016681162 l -43.149434453767746 -12.56017150289594 a65.94031154611812,65.94031154611812 0 0,0 0.3256938939843105,-1.0841290468755729 l 42.9274642397798 13.299038153362236" fill="#33ff55" stroke="none" /><path d="M 80.16572619554312 93.10060997987247 l -8.67591833226235 -3.0179347601625666 a30.18583088918381,30.18583088918381 0 0,0 0.1744451097044587,-0.48795401902261476 l 8.622833052513947 3.1664237355661027" fill="#ff0400" stroke="none" /><path d="M 80.28708602549916 92.7611449362534 l -14.420813194151021 -5.295522353968334 a36.3623699402787,36.3623699402787 0 0,0 0.22019893905675006,-0.5841038470557591 l 14.327783571279834 5.542294481218238" fill="#ff6809" stroke="none" /><path d="M 80.68587082218212 91.75594674310238 l -57.94238753345363 -24.732159770692828 a84.0,84.0 0 0,0 0.5774644719320907,-1.3213517208965326 l 57.50928917950456 25.72317356136523" fill="#4dd2ff" stroke="none" /><path d="M 81.29705330413844 90.45014215332179 l -16.126629528940487 -8.234371944261726 a39.10726542800265,39.10726542800265 0 0,0 0.31042217101444447,-0.5952754436176703 l 15.982899288951103 8.509993630983882" fill="#ff920d" stroke="none" /><line stroke="#e1ed5e" stroke-width="0.3" x1="26.387840678322718" x2="22.05771365940052" y1="57.49999999999999" y2="54.99999999999999" /><path d="M 25.521815274538284 56.99999999999999 a86.0,86.0 0 0,1 29.574782752854787,-30.34633250058573" fill="none" id="id11" stroke="none" /><text fill="#e1ed5e" style="font-size:6.75px; font-family:Arial;" text-anchor="middle"><textPath startOffset="21.40746469413373" xlink:href="#id11">November</textPath></text><path d="M 82.18462484594161 88.88188828441811 l -7.668127499569771 -4.785478691989318 a30.0388597544791,30.0388597544791 0 0,0 0.27676132982013185,-0.4351147793122727 l 7.584848478123749 4.916407145980263" fill="#ff0100" stroke="none" /><path d="M 82.78059297857968 87.97951657250589 l -12.440122324580303 -8.684171531145031 a36.171403317850036,36.171403317850036 0 0,0 0.35979333419436843,-0.5060943826980551 l 12.289213891855963 8.896443140552606" fill="#ff6509" stroke="none" /><path d="M 85.86807049272753 84.46653392183569 l -12.581442965782472 -13.829209763802483 a39.69598218314532,39.69598218314532 0 0,0 0.5079856527241272,-0.45424390306089013 l 12.342192286234953 14.043149196746775" fill="#ff9b0e" stroke="none" /><path d="M 86.40962598614128 83.9905735841838 l -9.83957636497613 -11.59099621667904 a36.204224950232245,36.204224950232245 0 0,0 0.47725041323809847,-0.39813926872236155 l 9.639151617576122 11.758197669313283" fill="#ff6509" stroke="none" /><path d="M 86.68645165197937 83.75963576809568 l -28.87389649166009 -35.22145888992699 a66.5439684804247,66.5439684804247 0 0,0 0.8896270423040026,-0.7166205718860156 l 28.265018679000843 35.71192775560641" fill="#34ff5d" stroke="none" /><path d="M 87.83215693770416 82.88440491214696 l -10.634361486684028 -14.958561208596008 a39.353424684804246,39.353424684804246 0 0,0 0.5539555007596023,-0.38670396188246925 l 10.37601089475066 15.138909986283604" fill="#ff960d" stroke="none" /><path d="M 88.72937992617638 82.28071324371311 l -16.07731036211707 -25.276202259520257 a50.956072992700726,50.956072992700726 0 0,0 0.742104522722778,-0.46312810799220716 l 15.641041710604593 25.548466164354" fill="#c4ff1e" stroke="none" /><line stroke="#e1ed5e" stroke-width="0.3" x1="56.869717070023135" x2="54.33264160355391" y1="26.7553504044142" y2="22.446841604673864" /><path d="M 56.362301976729285 25.89364864446614 a86.0,86.0 0 0,1 42.16139366436587,-11.88097634709845" fill="none" id="id12" stroke="none" /><text fill="#e1ed5e" style="font-size:6.75px; font-family:Arial;" text-anchor="middle"><textPath startOffset="22.145653131862474" xlink:href="#id12">December</textPath></text><path d="M 89.34428304082924 81.90426304109057 l -4.552062890118692 -7.730397963424442 a29.97108294625083,29.97108294625083 0 0,0 0.4455808496285825,-0.2572562234788029 l 4.4186895726297095 7.8074010841794195" fill="#ff0000" stroke="none" /><path d="M 89.97174638481275 81.54914285379989 l -7.943355922702979 -14.614880218950116 a37.63405023224951,37.63405023224951 0 0,0 0.5702655091024825,-0.3036342632645302 l 7.6913015978139345 14.749084949937222" fill="#ff7c0b" stroke="none" /><path d="M 90.93487009805054 81.0573650232925 l -13.128832825641725 -27.434211155966402 a51.413848706038486,51.413848706038486 0 0,0 0.7993905650392182,-0.37415514803422706 l 12.655953546730984 27.655542535571172" fill="#beff1f" stroke="none" /><path d="M 92.25597844496254 80.48000691201159 l -9.445074621833108 -23.80775802642054 a46.612863503649635,46.612863503649635 0 0,0 0.7463113159300026,-0.2886892495948056 l 9.034991043409576 23.966387164153385" fill="#ffff18" stroke="none" /><path d="M 92.93061703081487 80.22567764915836 l -5.0805941162957975 -14.211325971070286 a36.09219077637691,36.09219077637691 0 0,0 0.5851991730288987,-0.20356264988512912 l 4.835889171221894 14.296447053524002" fill="#ff6309" stroke="none" /><path d="M 93.27111125876988 80.10723608172694 l -9.60823215620593 -28.40503109885309 a50.98606204379563,50.98606204379563 0 0,0 0.8315031879466919,-0.273331613629977 l 9.119206230611477 28.565783633885093" fill="#c3ff1e" stroke="none" /><path d="M 94.6519064749342 79.69241777938228 l -4.981255044796084 -18.914636759800974 a40.5595599535501,40.5595599535501 0 0,0 0.6748235979465873,-0.17153751972087156 l 4.655826153624119 18.99735951135711" fill="#ffa80f" stroke="none" /><path d="M 95.35216902796891 79.52079915486377 l -6.6484256854180375 -29.294190286816583 a51.039160252156606,51.039160252156606 0 0,0 0.8560909745242472,-0.18658104336370285 l 6.144572294274671 29.404002788314" fill="#c3ff1e" stroke="none" /><path d="M 95.70440661134978 79.44403061299748 l -9.19753896026408 -44.01355347144727 a65.96429263437292,65.96429263437292 0 0,0 1.1104099655101873,-0.22211309194684592 l 8.440632509222917 44.16495596005698" fill="#33ff55" stroke="none" /><path d="M 96.41257539226777 79.30868818359171 l -2.5388014188476262 -14.643131923690332 a35.86158891838089,35.86158891838089 0 0,0 0.6074654264062239,-0.09995820474743951 l 2.2870584893883295 14.68455612693344" fill="#ff6008" stroke="none" /><path d="M 97.12497278360702 79.19773525538626 l -3.7360159693541632 -27.031950459973284 a48.28890179163902,48.28890179163902 0 0,0 0.8221120641451581,-0.10643886596051767 l 3.2714260833182114 27.092100922134197" fill="#e7ff1a" stroke="none" /><path d="M 97.84075906011542 79.11130261209362 l -3.0799818865103483 -29.796030817657062 a50.95479495686794,50.95479495686794 0 0,0 0.8708427694117578,-0.08246971567510764 l 2.568039553713575 29.844512288837354" fill="#c4ff1e" stroke="none" /><path d="M 98.1996594967304 79.07731436759882 l -4.17036325203596 -48.465942490769265 a69.64503583278037,69.64503583278037 0 0,0 1.192027868490108,-0.09227049593225967 l 3.3377663887706346 48.53039075369658" fill="#39ff86" stroke="none" /><path d="M 99.27912038922189 79.0123766808444 l -0.7460356304113762 -21.72001338315301 a42.73282196416722,42.73282196416722 0 0,0 0.733349528003388,-0.01888848247150481 l 0.3730727883372443 21.72961958297456" fill="#ffc812" stroke="none" /></svg>