<?xml version="1.0" encoding="utf-8" ?>
<svg baseProfile="full" height="200mm" version="1.1" viewBox="0,0,200,200" width="200mm" xmlns="http://www.w3.org/2000/svg" xmlns:ev="http://www.w3.org/2001/xml-events" xmlns:xlink="http://www.w3.org/1999/xlink"><defs /><rect fill="#1a1a1a" height="200" width="200" x="0" y="0" /><text alignment-baseline="middle" fill="#e1ed5e" style="dominant-baseline: central; font-size:9.0px; font-family:Arial;" text-anchor="middle" x="100.0" y="100.0">2026</text><line stroke="#e1ed5e" stroke-width="0.3" x1="100.0" x2="100.0" y1="15.0" y2="10.0" /><path d="M 100.0 14.0 a86.0,86.0 0 0,1 42.46469731375804,11.215312516191453" fill="none" id="id25" stroke="none" /><text fill="#e1ed5e" style="font-size:6.75px; font-family:Arial;" text-anchor="middle"><textPath startOffset="22.20632615414155" xlink:href="#id25">January</textPath></text><path d="M 102.88285421437855 79.19881850522331 l 3.2563654922601115 -23.496245241950913 a44.720823271739185,44.720823271739185 0 0,0 0.761597791559142,0.1122397171087218 l -3.6603322642479093 23.43671104068122" fill="red" stroke="none" /><path d="M 103.59715602781102 79.31037775812273 l 6.717053115402795 -38.63421282308898 a60.21378842977143,60.21378842977143 0 0,0 1.019634140119258,0.18633162176938883 l -7.381082376624954 38.51286571996885" fill="red" stroke="none" /><path d="M 104.307194497241 79.44645832069477 l 6.102078156022388 -29.11856378682739 a50.75106913759136,50.75106913759136 0 0,0 0.8534813963298917,0.18653797593453814 l -6.602402276505807 29.009212312796983" fill="red" stroke="none" /><path d="M 105.01212808612495 79.60689891045804 l 7.294541439171578 -29.67967266891797 a51.56294005068733,51.56294005068733 0 0,0 0.8600971225248902,0.21925790739288875 l -7.804347450381493 29.549711765356214" fill="red" stroke="none" /><path d="M 105.71112130821622 79.79150937346287 l 9.326211294237694 -33.00028897119898 a55.292816875949455,55.292816875949455 0 0,0 0.9136737307419825,0.2667264165869425 l -9.892875242703104 32.83486422569333" fill="red" stroke="none" /><path d="M 108.09893153111575 80.62456947434976 l 21.831293987713646 -52.22796591363679 a77.60711810942144,77.60711810942144 0 0,0 1.2281002789926716,0.5258084475264727 l -22.72707802449663 51.84443793814752" fill="red" stroke="none" /><path d="M 108.76106565485865 80.91482961587045 l 12.020483628707268 -26.185510666307113 a49.812722806484345,49.812722806484345 0 0,0 0.7761813455607198,0.3644275491963307 l -12.469443185567584 25.97471813447078" fill="red" stroke="none" /><path d="M 110.05341064243156 81.56283822128135 l 26.648488463133624 -48.87122494324762 a76.66451800584709,76.66451800584709 0 0,0 1.1531654505214437,0.6417353247094408 l -27.485778002727102 48.405274220978" fill="red" stroke="none" /><line stroke="#e1ed5e" stroke-width="0.3" x1="143.23703022742887" x2="145.7803849466894" y1="26.81831364943548" y2="22.513508569990506" /><path d="M 143.74570117128098 25.957352633546492 a86.0,86.0 0 0,1 28.547481713284135,27.462654790039103" fill="none" id="id26" stroke="none" /><text fill="#e1ed5e" style="font-size:6.75px; font-family:Arial;" text-anchor="middle"><textPath startOffset="19.985693538727396" xlink:href="#id26">February</textPath></text><path d="M 110.99172775467656 82.1063720568725 l 15.520449588058295 -25.266014282479258 a50.652248365645136,50.652248365645136 0 0,0 0.7389942280246191,0.4627581177935557 l -15.953062968455177 24.99511182336276" fill="red" stroke="none" /><path d="M 111.60114157652 82.49532879139004 l 22.58575056659833 -34.07907187928438 a61.883973251263484,61.883973251263484 0 0,0 0.8828641846452225,0.5961138384932543 l -23.16901944565009 33.68524612849245" fill="red" stroke="none" /><path d="M 113.34407831869373 83.78471172551755 l 18.854568539739343 -22.911456067712116 a50.672033532645365,50.672033532645365 0 0,0 0.6687320085965492,0.5600438254965983 l -19.24615808529501 22.583511084821698" fill="red" stroke="none" /><path d="M 115.9244219780498 86.31012108654704 l 11.959126105687833 -10.281000373090503 a36.77084861011706,36.77084861011706 0 0,0 0.4084880339910618,0.48352098848699204 l -12.13432475316601 10.073620434974405" fill="red" stroke="none" /><path d="M 116.60985879189232 87.15038557335679 l 42.85294324957956 -33.15162426743225 a75.17937741171164,75.17937741171164 0 0,0 0.7830256494720547,1.0303699694702928 l -43.41724483927573 32.40906952208092" fill="red" stroke="none" /><line stroke="#e1ed5e" stroke-width="0.3" x1="172.23445277983987" x2="176.4835382374775" y1="55.19839476539836" y2="52.563006222186495" /><path d="M 173.08426987136738 54.67131705675599 a86.0,86.0 0 0,1 12.851231095245387,41.99856678651699" fill="none" id="id27" stroke="none" /><text fill="#e1ed5e" style="font-size:6.75px; font-family:Arial;" text-anchor="middle"><textPath startOffset="22.20632615414155" xlink:href="#id27">March</textPath></text><path d="M 119.196687751892 91.48605970444005 l 24.00459630476901 -10.646300153404294 a47.25955732131268,47.25955732131268 0 0,0 0.32341130646642785,0.7464778852351378 l -24.184298321078117 10.231523123582553" fill="red" stroke="none" /><path d="M 119.34039704204932 91.81776055985345 l 24.178400677605246 -10.229028038764866 a47.253153599989844,47.253153599989844 0 0,0 0.3104719249063813,0.7518323925729835 l -24.350894289397825 9.811321075738581" fill="red" stroke="none" /><path d="M 119.61058180528143 92.48833698450437 l 30.12445521390605 -11.538910897141806 a53.25878588271433,53.25878588271433 0 0,0 0.32055553131188136,0.8589294537325771 l -30.318615333719556 11.018658306379896" fill="red" stroke="none" /><path d="M 119.97218684219823 93.5106431181261 l 52.241689583251855 -16.97435391008398 a75.93016312717111,75.93016312717111 0 0,0 0.3931899455554958,1.2465195762527184 l -52.52613501257556 16.072584167404845" fill="red" stroke="none" /><path d="M 120.28053869075195 94.5502522615342 l 25.361524193016606 -6.815100487343773 a47.2612357676778,47.2612357676778 0 0,0 0.20435683657369502,0.7874702537185231 l -25.475077361460606 6.377533808076398" fill="red" stroke="none" /><path d="M 120.37134235888165 94.90015583598534 l 18.72069613248943 -4.686614717657177 a40.2984149918268,40.2984149918268 0 0,0 0.1626658948945034,0.6743551508974253 l -18.798594827644752 4.363674335100345" fill="red" stroke="none" /><path d="M 120.45610955862082 95.25157060432595 l 61.36832867586249 -14.245288187022162 a84.0,84.0 0 0,0 0.31482245199184966,1.4112873218001445 l -61.60444551485638 13.186822695672053" fill="red" stroke="none" /><path d="M 120.67395015179393 96.31383870115 l 11.576627382212912 -2.064110415000563 a32.75920292162337,32.75920292162337 0 0,0 0.09420320392943364,0.5559926421291378 l -11.61044244766257 1.8645319845555874" fill="red" stroke="none" /><path d="M 120.73433829027371 96.67025291283417 l 31.21102265416558 -5.012207783786606 a52.61091839834281,52.61091839834281 0 0,0 0.1358967744693336,0.8953899492112122 l -31.292675322074214 4.474218722183312" fill="red" stroke="none" /><path d="M 120.83666639777658 97.38593545837742 l 16.09642294869298 -2.0193771726185608 a37.222598925835,37.222598925835 0 0,0 0.07428504672717788,0.6364289152449366 l -16.128798348423746 1.7420045190487716" fill="red" stroke="none" /><path d="M 120.87857604477298 97.74499172005257 l 52.951499326739935 -5.719071509540179 a74.25945042789095,74.25945042789095 0 0,0 0.12632195307344374,1.2720448283501615 l -53.04209840549561 4.806751150485583" fill="red" stroke="none" /><path d="M 120.94382443527127 98.46500227214037 l 10.540416437241507 -0.7725196194164186 a31.568687961750705,31.568687961750705 0 0,0 0.035055387906383295,0.5422913350298043 l -10.552152416152307 0.590969220133579" fill="red" stroke="none" /><path d="M 120.96714384426684 98.82574320788733 l 31.508537963130106 -1.7646234979621338 a52.55791280588073,52.55791280588073 0 0,0 0.04281315461367278,0.9037180272990639 l -31.534244725977274 1.2219943640400701" fill="red" stroke="none" /><path d="M 120.98425023603335 99.18683210126433 l 31.725915255457 -1.229421854655815 a52.74972719399561,52.74972719399561 0 0,0 0.027350245098552037,0.907621483351331 l -31.742377195011194 0.683130223879485" fill="red" stroke="none" /><line stroke="#e1ed5e" stroke-width="0.3" x1="184.98032266829074" x2="189.97916517819016" y1="98.17113171792111" y2="98.06355123074" /><path d="M 185.9800911702706 98.14961562048488 a86.0,86.0 0 0,1 -9.607161424134198,41.387399972396054" fill="none" id="id28" stroke="none" /><text fill="#e1ed5e" style="font-size:6.75px; font-family:Arial;" text-anchor="middle"><textPath startOffset="21.466115282336823" xlink:href="#id28">April</textPath></text><path d="M 120.99980553446 99.90962569577887 l 35.38586246541339 -0.15228582447244896 a56.38619015086941,56.38619015086941 0 0,0 -0.0041771499453479065,0.9706225380830493 l -35.38324101817854 -0.4568461918142851" fill="red" stroke="none" /><path d="M 120.99824983174949 100.27111621757518 l 16.21741531329741 0.20938908403399806 a37.21876700715828,37.21876700715828 0 0,0 -0.013785011272523321,0.6405353066724699 l -16.211408239339878 -0.48851420649658284" fill="red" stroke="none" /><path d="M 120.9764740272857 100.99374915477107 l 26.247961941252434 1.24348305438051 a47.27740010305372,47.27740010305372 0 0,0 -0.045507084601572094,0.8125595654913648 l -26.222668505763334 -1.6951143362072982" fill="red" stroke="none" /><path d="M 120.95626037817324 101.35467743843564 l 42.0583403213551 2.7187811042245853 a63.14612391762275,63.14612391762275 0 0,0 -0.07945418575770326,1.0840892380193718 l -42.00530957693306 -3.442343478740727" fill="red" stroke="none" /><path d="M 120.92983693683757 101.71520430193887 l 34.398969054716794 2.8190023593096956 a55.514284670686095,55.514284670686095 0 0,0 -0.08624647379859532,0.9517226515647516 l -34.34534798464112 -3.4107063994230176" fill="red" stroke="none" /><path d="M 120.8583938346157 102.4346265915055 l 41.83492386247792 4.883042236941905 a63.11893821153476,63.11893821153476 0 0,0 -0.1352503313076434,1.0780782145099261 l -41.74467202192343 -5.602438205739226" fill="red" stroke="none" /><path d="M 120.81339534386255 102.79330883721812 l 31.294395742948453 4.19993522152337 a52.57496889596667,52.57496889596667 0 0,0 -0.12809753220641915,0.8959138419005149 l -31.21746415972543 -4.737994535404294" fill="red" stroke="none" /><path d="M 120.70491114924044 103.5080841355445 l 15.587528201033392 2.6410333278055993 a36.8096835027331,36.8096835027331 0 0,0 -0.1112240654579471,0.6238036261936905 l -15.539757693236256 -2.908955704732508" fill="red" stroke="none" /><path d="M 120.64145759157962 103.86396538481128 l 33.18900172690052 6.2127954511070715 a54.76549515327004,54.76549515327004 0 0,0 -0.1814304365920923,0.9251098874261685 l -33.07714135733276 -6.783169065601186" fill="red" stroke="none" /><line stroke="#e1ed5e" stroke-width="0.3" x1="174.80103733775053" x2="179.2010983576182" y1="140.37084112569926" y2="142.7455964860345" /><path d="M 175.68104954172406 140.8457921977663 a86.0,86.0 0 0,1 -30.038265399797805,32.042727171017184" fill="none" id="id29" stroke="none" /><text fill="#e1ed5e" style="font-size:6.75px; font-family:Arial;" text-anchor="middle"><textPath startOffset="22.206326154141568" xlink:href="#id29">May</textPath></text><line stroke="#e1ed5e" stroke-width="0.3" x1="143.8653032363475" x2="146.44561519142675" y1="172.8068346515853" y2="177.08958963109032" /><path d="M 144.38136562736335 173.6633856474863 a86.0,86.0 0 0,1 -40.68145358897372,12.25698825130547" fill="none" id="id30" stroke="none" /><text fill="#e1ed5e" style="font-size:6.75px; font-family:Arial;" text-anchor="middle"><textPath startOffset="21.466115282336833" xlink:href="#id30">June</textPath></text><line stroke="#e1ed5e" stroke-width="0.3" x1="102.19456741930631" x2="102.32365962044197" y1="184.97166512339345" y2="189.96999836594603" /><path d="M 102.22038585953345 185.97133177190398 a86.0,86.0 0 0,1 -42.740103519485714,-10.115201625700543" fill="none" id="id31" stroke="none" /><text fill="#e1ed5e" style="font-size:6.75px; font-family:Arial;" text-anchor="middle"><textPath startOffset="22.20632615414155" xlink:href="#id31">July</textPath></text><line stroke="#e1ed5e" stroke-width="0.3" x1="58.666819895761336" x2="56.23545636021788" y1="174.27360380694188" y2="178.64263932499728" /><path d="M 58.180547188652646 175.14741091055294 a86.0,86.0 0 0,1 -31.652253787137756,-30.449443065178592" fill="none" id="id32" stroke="none" /><text fill="#e1ed5e" style="font-size:6.75px; font-family:Arial;" text-anchor="middle"><textPath startOffset="22.20632615414155" xlink:href="#id32">August</textPath></text><line stroke="#e1ed5e" stroke-width="0.3" x1="26.63291911575756" x2="22.317208475507996" y1="142.92168965132927" y2="145.44649492493687" /><path d="M 25.769776987707644 143.4266507060508 a86.0,86.0 0 0,1 -11.730757126820373,-40.83630448921669" fill="none" id="id33" stroke="none" /><text fill="#e1ed5e" style="font-size:6.75px; font-family:Arial;" text-anchor="middle"><textPath startOffset="21.46611528233685" xlink:href="#id33">September</textPath></text><line stroke="#e1ed5e" stroke-width="0.3" x1="15.007084014347285" x2="10.007500721073583" y1="101.09737516637583" y2="101.16192664675087" /><path d="M 14.007167355692545 101.11028546245083 a86.0,86.0 0 0,1 10.666146001902534,-42.60595125391555" fill="none" id="id34" stroke="none" /><text fill="#e1ed5e" style="font-size:6.75px; font-family:Arial;" text-anchor="middle"><textPath startOffset="22.20632615414155" xlink:href="#id34">October</textPath></text><line stroke="#e1ed5e" stroke-width="0.3" x1="26.266209847984243" x2="21.928928074336255" y1="57.711370442889674" y2="55.22380399835377" /><path d="M 25.398753493254645 57.213857153982495 a86.0,86.0 0 0,1 29.58750427330803,-30.492523968695096" fill="none" id="id35" stroke="none" /><text fill="#e1ed5e" style="font-size:6.75px; font-family:Arial;" text-anchor="middle"><textPath startOffset="21.46611528233685" xlink:href="#id35">November</textPath></text><line stroke="#e1ed5e" stroke-width="0.3" x1="56.762969772571076" x2="54.21961505331055" y1="26.818313649435495" y2="22.513508569990535" /><path d="M 56.25429882871897 25.957352633546506 a86.0,86.0 0 0,1 42.265352541879196,-11.944610805530505" fill="none" id="id36" stroke="none" /><text fill="#e1ed5e" style="font-size:6.75px; font-family:Arial;" text-anchor="middle"><textPath startOffset="22.20632615414155" xlink:href="#id36">December</textPath></text></svg>