<?xml version="1.0" encoding="utf-8" ?>
<svg baseProfile="full" height="200mm" version="1.1" viewBox="0,0,200,200" width="200mm" xmlns="http://www.w3.org/2000/svg" xmlns:ev="http://www.w3.org/2001/xml-events" xmlns:xlink="http://www.w3.org/1999/xlink"><defs /><rect fill="#1a1a1a" height="200" width="200" x="0" y="0" /><text alignment-baseline="middle" fill="#e1ed5e" style="dominant-baseline: central; font-size:9.0px; font-family:Arial;" text-anchor="middle" x="100.0" y="100.0">2025</text><line stroke="#e1ed5e" stroke-width="0.3" x1="100.0" x2="100.0" y1="15.0" y2="10.0" /><path d="M 100.0 14.0 a86.0,86.0 0 0,1 42.46469731375804,11.215312516191453" fill="none" id="id13" stroke="none" /><text fill="#e1ed5e" style="font-size:6.75px; font-family:Arial;" text-anchor="middle"><textPath startOffset="22.20632615414155" xlink:href="#id13">January</textPath></text><path d="M 100.72285384407766 79.0124445844662 l 2.038039920318704 -59.17306260069287 a80.20814930617516,80.20814930617516 0 0,0 1.3794242113814492,0.059400908237993044 l -3.056304964089485 59.12921396593068" fill="#48fbff" stroke="none" /><path d="M 103.2404852339499 79.25152402106235 l 1.7317679229096377 -11.088322444162953 a32.222740964868905,32.222740964868905 0 0,0 0.5472814571581514,0.09030612971957046 l -1.9223785862066642 11.056870051503758" fill="#ff1802" stroke="none" /><path d="M 104.66035177308747 79.52364482259891 l 4.013420513688879 -17.63391003853702 a39.08486459631134,39.08486459631134 0 0,0 0.6547204553933048,0.15495117862207414 l -4.3163646560447075 17.56221294777408" fill="#ff870c" stroke="none" /><path d="M 105.71112130821622 79.79150937346287 l 3.5043161073832927 -12.399831029083314 a33.88549731016554,33.88549731016554 0 0,0 0.5599332878063781,0.163459881092407 l -3.7172396129130982 12.337672819072203" fill="#ff3404" stroke="none" /><path d="M 107.4271985657038 80.35727306442388 l 10.399819759725203 -27.504424166439833 a50.40492475355464,50.40492475355464 0 0,0 0.8089194385177583,0.3138481748273929 l -10.871722363242629 27.321333287721895" fill="#d2ff1c" stroke="none" /><path d="M 108.43124777332544 80.76684994638697 l 8.66029612367615 -19.755649381146178 a42.57049863634454,42.57049863634454 0 0,0 0.6685957940977132,0.2999794437120344 l -8.999074036240645 19.603649606917614" fill="#ffbd11" stroke="none" /><path d="M 110.05341064243156 81.56283822128135 l 17.97598878517694 -32.96654490227601 a58.549024695703984,58.549024695703984 0 0,0 0.8806774528428291,0.49009604901778725 l -18.540790327091806 32.652233455698045" fill="#69ff28" stroke="none" /><line stroke="#e1ed5e" stroke-width="0.3" x1="143.23703022742887" x2="145.7803849466894" y1="26.81831364943548" y2="22.513508569990506" /><path d="M 143.74570117128098 25.957352633546492 a86.0,86.0 0 0,1 28.547481713284135,27.462654790039103" fill="none" id="id14" stroke="none" /><text fill="#e1ed5e" style="font-size:6.75px; font-family:Arial;" text-anchor="middle"><textPath startOffset="19.985693538727396" xlink:href="#id14">February</textPath></text><path d="M 111.60114157652 82.49532879139004 l 9.988724626888365 -15.071735762703756 a39.081256554027696,39.081256554027696 0 0,0 0.5575505238228698,0.3764606025371109 l -10.246679845117777 14.897563247867975" fill="#ff870c" stroke="none" /><path d="M 113.89432698308785 84.25364557470407 l 12.033255761173839 -13.63721397490589 a39.18716165901628,39.18716165901628 0 0,0 0.5019483768369083,0.4506542087700102 l -12.266215125606738 13.428060757366582" fill="#ff890c" stroke="none" /><path d="M 116.82858285166822 87.43820079747576 l 11.79278278801859 -8.802795263737176 a35.71594136780455,35.71594136780455 0 0,0 0.3635158095033829,0.4958351556353308 l -11.9425612100356 8.59849766443035" fill="#ff5207" stroke="none" /><path d="M 117.65298651832404 88.62581576622439 l 15.6431632639085 -10.079213552790854 a39.609113432510945,39.609113432510945 0 0,0 0.364351792967845,0.5763170372027882 l -15.814342653122301 9.80844886787386" fill="#ff900d" stroke="none" /><line stroke="#e1ed5e" stroke-width="0.3" x1="172.23445277983987" x2="176.4835382374775" y1="55.19839476539836" y2="52.563006222186495" /><path d="M 173.08426987136738 54.67131705675599 a86.0,86.0 0 0,1 12.851231095245387,41.99856678651699" fill="none" id="id15" stroke="none" /><text fill="#e1ed5e" style="font-size:6.75px; font-family:Arial;" text-anchor="middle"><textPath startOffset="22.20632615414155" xlink:href="#id15">March</textPath></text><path d="M 118.3937258080291 89.86733742301442 l 25.138774041511713 -13.848347943217286 a49.70077875366091,49.70077875366091 0 0,0 0.40634386545421813,0.7528934697488399 l -25.3734260061844 13.413573490135986" fill="#dbff1b" stroke="none" /><path d="M 118.56541770881063 90.18545643968196 l 28.091014360438365 -14.850217130487847 a52.77473897014717,52.77473897014717 0 0,0 0.41765065639407883,0.8067681326193923 l -28.342474449992558 14.364476275608109" fill="#b2ff20" stroke="none" /><path d="M 118.73160827565052 90.50648371742162 l 26.094602172866683 -13.225214139115991 a50.25465008482672,50.25465008482672 0 0,0 0.38442411136464627,0.7749755506338842 l -26.318386297184738 12.774078999983157" fill="#d4ff1c" stroke="none" /><path d="M 118.89224826269711 90.83032412892265 l 39.78956258898988 -19.312544855415428 a65.22876529833923,65.22876529833923 0 0,0 0.4815802659679377,1.0143308584083717 l -40.11610104879958 18.624771581366517" fill="#32ff48" stroke="none" /><path d="M 119.196687751892 91.48605970444005 l 11.492244364201207 -5.096935661161176 a33.571811073211805,33.571811073211805 0 0,0 0.2297419589822333,0.5302761167029199 l -11.578277033026122 4.898360399871653" fill="#ff2f04" stroke="none" /><path d="M 119.34039704204932 91.81776055985345 l 27.11859390733074 -11.472920030930641 a50.44564534098116,50.44564534098116 0 0,0 0.3314478594326541,0.8026272818245551 l -27.312063453649593 11.004418178652783" fill="#d1ff1c" stroke="none" /><path d="M 119.47837535516314 92.15188598940014 l 25.833184461129868 -10.408556833466243 a48.85123829847173,48.85123829847173 0 0,0 0.30754518092019373,0.7826689398854277 l -26.00852319193176 9.96233888868503" fill="#e7ff1a" stroke="none" /><path d="M 119.61058180528143 92.48833698450437 l 13.688963565731465 -5.243438586277916 a35.65883254942192,35.65883254942192 0 0,0 0.21462441969694396,0.575086740239739 l -13.777192573930034 5.007028709008845" fill="#ff5107" stroke="none" /><path d="M 120.08093135843002 93.85539295169968 l 9.56570249793511 -2.9270297249475483 a31.00350774927118,31.00350774927118 0 0,0 0.15176084597508177,0.5116621282701727 l -9.614669241021895 2.761938209930846" fill="#ff0400" stroke="none" /><path d="M 120.18372546131832 94.20196356495316 l 17.267497020497355 -4.960312062249347 a38.96583282533213,38.96583282533213 0 0,0 0.17963848159007711,0.6462551964728546 l -17.350322272653795 4.662345562357541" fill="#ff860c" stroke="none" /><path d="M 120.37134235888165 94.90015583598534 l 28.429821086708014 -7.117236291982282 a50.30716259650765,50.30716259650765 0 0,0 0.20306653810140943,0.8418418995106822 l -28.54812042507024 6.6268091608121935" fill="#d3ff1c" stroke="none" /><path d="M 120.53481517161879 95.60439243477599 l 37.71335879130429 -8.072783895429465 a59.5676972496927,59.5676972496927 0 0,0 0.20599276738071362,1.004493890590665 l -37.8467308546 7.422414348675389" fill="#5dff2a" stroke="none" /><path d="M 120.67395015179393 96.31383870115 l 14.576117060501018 -2.598918842380186 a35.80599769386405,35.80599769386405 0 0,0 0.10296464510207796,0.6077031638868325 l -14.618693567123318 2.347629890177515" fill="#ff5307" stroke="none" /><path d="M 120.78858239683441 97.02765380044208 l 19.540168054590225 -2.7938482358772263 a40.73888942080437,40.73888942080437 0 0,0 0.0932804189186983,0.6950474687680998 l -19.58536447256676 2.457082425044462" fill="#ffa10e" stroke="none" /><path d="M 120.83666639777658 97.38593545837742 l 14.187636465214652 -1.7799103131538636 a35.2988499254996,35.2988499254996 0 0,0 0.07044582570271334,0.6035368140800923 l -14.216172643920954 1.5354297607489187" fill="#ff4b07" stroke="none" /><path d="M 120.96714384426684 98.82574320788733 l 31.919910488209243 -1.7876622573301535 a52.96992996428946,52.96992996428946 0 0,0 0.04314877970539951,0.9108025425267852 l -31.94595287614814 1.2379486081803686" fill="#b0ff20" stroke="none" /><line stroke="#e1ed5e" stroke-width="0.3" x1="184.98032266829074" x2="189.97916517819016" y1="98.17113171792111" y2="98.06355123074" /><path d="M 185.9800911702706 98.14961562048488 a86.0,86.0 0 0,1 -9.607161424134198,41.387399972396054" fill="none" id="id16" stroke="none" /><text fill="#e1ed5e" style="font-size:6.75px; font-family:Arial;" text-anchor="middle"><textPath startOffset="21.466115282336823" xlink:href="#id16">April</textPath></text><path d="M 120.99513854157772 99.54816195383933 l 23.153006228665742 -0.49827768825572866 a44.15836734485504,44.15836734485504 0 0,0 0.00981365648055907,0.7600785094481891 l -23.158152892264017 0.09966292074707682" fill="#ffd413" stroke="none" /><path d="M 120.99824983174949 100.27111621757518 l 10.692372492622527 0.13805320016345624 a31.69326368360316,31.69326368360316 0 0,0 -0.011738486582790243,0.5454413460049277 l -10.688411943354728 -0.32208436195849877" fill="#ff1001" stroke="none" /><path d="M 120.9904718944345 100.63252640178507 l 20.06898995761762 0.6047584860976073 a41.07809977924863,41.07809977924863 0 0,0 -0.02738122778261627,0.7065878233187398 l -20.0556065969838 -0.9501235564303533" fill="#ffa60f" stroke="none" /><path d="M 120.92983693683757 101.71520430193887 l 14.649136430228413 1.2004996455846109 a35.698244709845255,35.698244709845255 0 0,0 -0.05546045932659338,0.6120015472234203 l -14.626301374624745 -1.4524825813566018" fill="#ff5207" stroke="none" /><path d="M 120.89721153311464 102.0752229133903 l 21.049722369272324 2.090368186779201 a42.15326100107835,42.15326100107835 0 0,0 -0.07791869410892034,0.7214303356351399 l -21.01062137366235 -2.4523948442991323" fill="#ffb610" stroke="none" /><path d="M 120.81339534386255 102.79330883721812 l 20.380061350469333 2.7351522677005304 a41.56278090571412,41.56278090571412 0 0,0 -0.10126662511571165,0.7082585401998086 l -20.32996067433702 -3.0855562798807488" fill="#ffad10" stroke="none" /><path d="M 120.76222939487914 103.15116336523771 l 37.66851466732154 5.717095268770084 a59.09989731684865,59.09989731684865 0 0,0 -0.16130963960141723,1.0044752797801004 l -37.56452327335883 -6.36464977824339" fill="#63ff29" stroke="none" /><path d="M 120.64145759157962 103.86396538481128 l 11.617159265539504 2.174667223607106 a32.81894948522674,32.81894948522674 0 0,0 -0.10872459596931036,0.5543843724730819 l -11.57800473659453 -2.374315323148133" fill="#ff2203" stroke="none" /><path d="M 120.5718875245553 104.21870165774334 l 14.438473588253736 2.960915102678025 a35.73894629218682,35.73894629218682 0 0,0 -0.1287724631511341,0.6015820772817041 l -14.385367086378158 -3.209010999375898" fill="#ff5207" stroke="none" /><path d="M 120.49622156327973 104.57218783832717 l 27.996680721534332 6.245350281432303 a49.684813605134664,49.684813605134664 0 0,0 -0.19339088313950842,0.8331228630553504 l -27.885029272464273 -6.726341801836219" fill="#dcff1b" stroke="none" /><path d="M 120.32669344350535 105.2749913415812 l 20.16943156571388 5.2341802255963845 a41.837528939824885,41.837528939824885 0 0,0 -0.1868980509976923,0.6955171755439647 l -20.076345438374407 -5.580588334315898" fill="#ffb210" stroke="none" /><path d="M 120.02730092923936 106.31721596034902 l 60.08190278771807 18.951647881047055 a84.0,84.0 0 0,0 -0.4468309959350121,1.375204400088819 l -59.746779540766816 -19.98305118111367" fill="#4dd2ff" stroke="none" /><path d="M 119.41010516605496 108.01547362559984 l 20.213567122528037 8.347266166968723 a42.86927406840856,42.86927406840856 0 0,0 -0.2875283423587305,0.6796320668367694 l -20.066887798976996 -8.693972759471656" fill="#ffc111" stroke="none" /><path d="M 119.12269723197855 108.67885076344098 l 8.902446470384511 4.040382139020826 a30.776412480423488,30.776412480423488 0 0,0 -0.2230929134346601,0.48052228826096244 l -8.831578940110019 -4.193024494560619" fill="#ff0000" stroke="none" /><path d="M 118.97047184881838 109.00673069616215 l 18.702017608401807 8.879274981462817 a41.70282557578561,41.70282557578561 0 0,0 -0.3134597717667791,0.6458199735571072 l -18.546404580020315 -9.1998839109852" fill="#ffb010" stroke="none" /><path d="M 118.81262510543309 109.33194174019688 l 19.156482268446045 9.50251097198684 a42.38383800149117,42.38383800149117 0 0,0 -0.32982967551271275,0.6507852407360059 l -18.99007392314706 -9.83085042442554" fill="#ffba11" stroke="none" /><line stroke="#e1ed5e" stroke-width="0.3" x1="174.80103733775053" x2="179.2010983576182" y1="140.37084112569926" y2="142.7455964860345" /><path d="M 175.68104954172406 140.8457921977663 a86.0,86.0 0 0,1 -30.038265399797805,32.042727171017184" fill="none" id="id17" stroke="none" /><text fill="#e1ed5e" style="font-size:6.75px; font-family:Arial;" text-anchor="middle"><textPath startOffset="22.206326154141568" xlink:href="#id17">May</textPath></text><path d="M 118.48025628344425 109.97397251340804 l 20.08401971456214 10.839539101589454 a43.82243317067239,43.82243317067239 0 0,0 -0.36398410191428315,0.6607368713036587 l -19.894459203196348 -11.183646491290917" fill="#ffcf13" stroke="none" /><path d="M 117.14729908036423 112.12312394758627 l 17.697644563255395 12.5122176743484 a42.673998574734654,42.673998574734654 0 0,0 -0.4292195637675564,0.596148433469213 l -17.479645207112238 -12.814999713268744" fill="#ffbe11" stroke="none" /><path d="M 116.93607887273984 112.41649034213515 l 35.47000705790077 26.00442542687818 a64.98126353880251,64.98126353880251 0 0,0 -0.669117434103955,0.8963921485905733 l -35.017128357101726 -26.611130454978067" fill="#31ff44" stroke="none" /><path d="M 116.498646956653 112.99209946851258 l 15.628393122844535 12.306805431892514 a40.89231337830353,40.89231337830353 0 0,0 -0.44023902807019477,0.5492658773626273 l -15.414236182719486 -12.573999142833392" fill="#ffa30f" stroke="none" /><path d="M 116.27256486870786 113.27417163493432 l 18.22632723836848 14.867932497957417 a44.52136095900726,44.52136095900726 0 0,0 -0.48953144455324793,0.5896721604153494 l -17.967699793921685 -15.179465915486537" fill="#ffd914" stroke="none" /><path d="M 116.0416608686014 113.55231037782055 l 15.43117323908882 13.03655843014235 a41.200815905237256,41.200815905237256 0 0,0 -0.4623467085649788,0.5378136748978806 l -15.204484020953062 -13.300249204201759" fill="#ffa80f" stroke="none" /><path d="M 115.56566222782051 114.09645910891815 l 16.5584473529032 14.995537780602131 a43.33938969775882,43.33938969775882 0 0,0 -0.5055304372256774,0.5486534461345305 l -16.2978705076818 -15.278342481537996" fill="#ffc812" stroke="none" /><path d="M 115.32070863581623 114.36230785411682 l 25.65188406695833 24.047207264714203 a56.16087788177073,56.16087788177073 0 0,0 -0.6672271952527531,0.6995850466833383 l -25.234150320326613 -24.485199427980046" fill="#87ff25" stroke="none" /><path d="M 114.81725581225074 114.88116024355365 l 12.442554913044479 12.49621764288788 a38.6344160136521,38.6344160136521 0 0,0 -0.4752953912885904,0.4651765767951652 l -12.225609569380094 -12.708544322605617" fill="#ff800b" stroke="none" /><line stroke="#e1ed5e" stroke-width="0.3" x1="143.8653032363475" x2="146.44561519142675" y1="172.8068346515853" y2="177.08958963109032" /><path d="M 144.38136562736335 173.6633856474863 a86.0,86.0 0 0,1 -40.68145358897372,12.25698825130547" fill="none" id="id18" stroke="none" /><text fill="#e1ed5e" style="font-size:6.75px; font-family:Arial;" text-anchor="middle"><textPath startOffset="21.466115282336833" xlink:href="#id18">June</textPath></text><line stroke="#e1ed5e" stroke-width="0.3" x1="102.19456741930631" x2="102.32365962044197" y1="184.97166512339345" y2="189.96999836594603" /><path d="M 102.22038585953345 185.97133177190398 a86.0,86.0 0 0,1 -42.740103519485714,-10.115201625700543" fill="none" id="id19" stroke="none" /><text fill="#e1ed5e" style="font-size:6.75px; font-family:Arial;" text-anchor="middle"><textPath startOffset="22.20632615414155" xlink:href="#id19">July</textPath></text><line stroke="#e1ed5e" stroke-width="0.3" x1="58.666819895761336" x2="56.23545636021788" y1="174.27360380694188" y2="178.64263932499728" /><path d="M 58.180547188652646 175.14741091055294 a86.0,86.0 0 0,1 -31.652253787137756,-30.449443065178592" fill="none" id="id20" stroke="none" /><text fill="#e1ed5e" style="font-size:6.75px; font-family:Arial;" text-anchor="middle"><textPath startOffset="22.20632615414155" xlink:href="#id20">August</textPath></text><line stroke="#e1ed5e" stroke-width="0.3" x1="26.63291911575756" x2="22.317208475507996" y1="142.92168965132927" y2="145.44649492493687" /><path d="M 25.769776987707644 143.4266507060508 a86.0,86.0 0 0,1 -11.730757126820373,-40.83630448921669" fill="none" id="id21" stroke="none" /><text fill="#e1ed5e" style="font-size:6.75px; font-family:Arial;" text-anchor="middle"><textPath startOffset="21.46611528233685" xlink:href="#id21">September</textPath></text><line stroke="#e1ed5e" stroke-width="0.3" x1="15.007084014347285" x2="10.007500721073583" y1="101.09737516637583" y2="101.16192664675087" /><path d="M 14.007167355692545 101.11028546245083 a86.0,86.0 0 0,1 10.666146001902534,-42.60595125391555" fill="none" id="id22" stroke="none" /><text fill="#e1ed5e" style="font-size:6.75px; font-family:Arial;" text-anchor="middle"><textPath startOffset="22.20632615414155" xlink:href="#id22">October</textPath></text><line stroke="#e1ed5e" stroke-width="0.3" x1="26.266209847984243" x2="21.928928074336255" y1="57.711370442889674" y2="55.22380399835377" /><path d="M 25.398753493254645 57.213857153982495 a86.0,86.0 0 0,1 29.58750427330803,-30.492523968695096" fill="none" id="id23" stroke="none" /><text fill="#e1ed5e" style="font-size:6.75px; font-family:Arial;" text-anchor="middle"><textPath startOffset="21.46611528233685" xlink:href="#id23">November</textPath></text><line stroke="#e1ed5e" stroke-width="0.3" x1="56.762969772571076" x2="54.21961505331055" y1="26.818313649435495" y2="22.513508569990535" /><path d="M 56.25429882871897 25.957352633546506 a86.0,86.0 0 0,1 42.265352541879196,-11.944610805530505" fill="none" id="id24" stroke="none" /><text fill="#e1ed5e" style="font-size:6.75px; font-family:Arial;" text-anchor="middle"><textPath startOffset="22.20632615414155" xlink:href="#id24">December</textPath></text></svg>